<svg width="24" height="24" viewBox="0 0 24 24" fill="none" xmlns="http://www.w3.org/2000/svg">
<path fill-rule="evenodd" clip-rule="evenodd" d="M8.504 19.8679C8.66 19.9579 8.831 19.9999 8.999 19.9999C9.346 19.9999 9.684 19.8189 9.868 19.4959L13.868 12.4959C14.045 12.1869 14.044 11.8059 13.865 11.4979C13.686 11.1899 13.356 10.9999 13 10.9999H8.723L11.868 5.49588C12.142 5.01688 11.976 4.40588 11.496 4.13188C11.018 3.85888 10.406 4.02488 10.132 4.50388L6.132 11.5039C5.955 11.8129 5.956 12.1939 6.135 12.5019C6.314 12.8099 6.644 12.9999 7 12.9999H11.277L8.132 18.5039C7.858 18.9829 8.024 19.5939 8.504 19.8679ZM12.7315 5.99988H15.8335C17.0285 5.99988 18.0005 7.08888 18.0005 8.42888V15.5709C18.0005 16.9109 17.0285 17.9999 15.8335 17.9999H11.8755L13.0175 15.9999H15.8275C15.8795 15.9769 16.0005 15.8239 16.0005 15.5709V8.42888C16.0005 8.16988 15.8745 8.01688 15.8245 7.99888H11.5895L12.7315 5.99988ZM20 9.99988C20 9.44788 20.448 8.99988 21 8.99988C21.552 8.99988 22 9.44788 22 9.99988V13.9999C22 14.5519 21.552 14.9999 21 14.9999C20.448 14.9999 20 14.5519 20 13.9999V9.99988ZM4 15.5712V8.42818C4 8.17018 4.126 8.01618 4.167 8.00018L6.982 7.99918L8.125 6.00018H4.167C2.972 6.00018 2 7.08918 2 8.42818V15.5712C2 16.9102 2.972 18.0002 4.167 18.0002H7.268L8.41 16.0012H4.176C4.126 15.9832 4 15.8292 4 15.5712Z" fill="#222B45"/>
<mask id="mask0_214_5979" style="mask-type:alpha" maskUnits="userSpaceOnUse" x="2" y="4" width="20" height="16">
<path fill-rule="evenodd" clip-rule="evenodd" d="M8.504 19.8679C8.66 19.9579 8.831 19.9999 8.999 19.9999C9.346 19.9999 9.684 19.8189 9.868 19.4959L13.868 12.4959C14.045 12.1869 14.044 11.8059 13.865 11.4979C13.686 11.1899 13.356 10.9999 13 10.9999H8.723L11.868 5.49588C12.142 5.01688 11.976 4.40588 11.496 4.13188C11.018 3.85888 10.406 4.02488 10.132 4.50388L6.132 11.5039C5.955 11.8129 5.956 12.1939 6.135 12.5019C6.314 12.8099 6.644 12.9999 7 12.9999H11.277L8.132 18.5039C7.858 18.9829 8.024 19.5939 8.504 19.8679ZM12.7315 5.99988H15.8335C17.0285 5.99988 18.0005 7.08888 18.0005 8.42888V15.5709C18.0005 16.9109 17.0285 17.9999 15.8335 17.9999H11.8755L13.0175 15.9999H15.8275C15.8795 15.9769 16.0005 15.8239 16.0005 15.5709V8.42888C16.0005 8.16988 15.8745 8.01688 15.8245 7.99888H11.5895L12.7315 5.99988ZM20 9.99988C20 9.44788 20.448 8.99988 21 8.99988C21.552 8.99988 22 9.44788 22 9.99988V13.9999C22 14.5519 21.552 14.9999 21 14.9999C20.448 14.9999 20 14.5519 20 13.9999V9.99988ZM4 15.5712V8.42818C4 8.17018 4.126 8.01618 4.167 8.00018L6.982 7.99918L8.125 6.00018H4.167C2.972 6.00018 2 7.08918 2 8.42818V15.5712C2 16.9102 2.972 18.0002 4.167 18.0002H7.268L8.41 16.0012H4.176C4.126 15.9832 4 15.8292 4 15.5712Z" fill="white"/>
</mask>
<g mask="url(#mask0_214_5979)">
</g>
</svg>
