<svg width="24" height="24" viewBox="0 0 24 24" fill="none" xmlns="http://www.w3.org/2000/svg">
<path fill-rule="evenodd" clip-rule="evenodd" d="M16.9998 7.99976C16.4468 7.99976 15.9998 8.44776 15.9998 8.99976V14.5858L7.70676 6.29276C7.31576 5.90176 6.68376 5.90176 6.29276 6.29276C5.90176 6.68376 5.90176 7.31576 6.29276 7.70676L14.5858 15.9998H8.99976C8.44676 15.9998 7.99976 16.4478 7.99976 16.9998C7.99976 17.5518 8.44676 17.9998 8.99976 17.9998H16.9998C17.5528 17.9998 17.9998 17.5518 17.9998 16.9998V8.99976C17.9998 8.44776 17.5528 7.99976 16.9998 7.99976Z" fill="#222B45"/>
<mask id="mask0_214_6740" style="mask-type:alpha" maskUnits="userSpaceOnUse" x="5" y="5" width="13" height="13">
<path fill-rule="evenodd" clip-rule="evenodd" d="M16.9998 7.99976C16.4468 7.99976 15.9998 8.44776 15.9998 8.99976V14.5858L7.70676 6.29276C7.31576 5.90176 6.68376 5.90176 6.29276 6.29276C5.90176 6.68376 5.90176 7.31576 6.29276 7.70676L14.5858 15.9998H8.99976C8.44676 15.9998 7.99976 16.4478 7.99976 16.9998C7.99976 17.5518 8.44676 17.9998 8.99976 17.9998H16.9998C17.5528 17.9998 17.9998 17.5518 17.9998 16.9998V8.99976C17.9998 8.44776 17.5528 7.99976 16.9998 7.99976Z" fill="white"/>
</mask>
<g mask="url(#mask0_214_6740)">
</g>
</svg>
