<svg width="24" height="24" viewBox="0 0 24 24" fill="none" xmlns="http://www.w3.org/2000/svg">
<path fill-rule="evenodd" clip-rule="evenodd" d="M17.9932 7.049C17.9932 6.5 17.5493 6.053 16.9993 6.05L9.00625 6H9.00025C8.45025 6 8.00425 6.444 8.00025 6.994C7.99625 7.546 8.44125 7.997 8.99425 8L14.5522 8.035L6.29325 16.293C5.90225 16.684 5.90225 17.317 6.29325 17.707C6.48825 17.903 6.74425 18 7.00025 18C7.25625 18 7.51225 17.903 7.70725 17.707L15.9952 9.419L16.0002 15.001C16.0002 15.553 16.4482 16 17.0002 16H17.0013C17.5533 16 18.0002 15.551 18.0002 14.999L17.9932 7.049Z" fill="#222B45"/>
<mask id="mask0_214_6499" style="mask-type:alpha" maskUnits="userSpaceOnUse" x="6" y="6" width="13" height="12">
<path fill-rule="evenodd" clip-rule="evenodd" d="M17.9932 7.049C17.9932 6.5 17.5493 6.053 16.9993 6.05L9.00625 6H9.00025C8.45025 6 8.00425 6.444 8.00025 6.994C7.99625 7.546 8.44125 7.997 8.99425 8L14.5522 8.035L6.29325 16.293C5.90225 16.684 5.90225 17.317 6.29325 17.707C6.48825 17.903 6.74425 18 7.00025 18C7.25625 18 7.51225 17.903 7.70725 17.707L15.9952 9.419L16.0002 15.001C16.0002 15.553 16.4482 16 17.0002 16H17.0013C17.5533 16 18.0002 15.551 18.0002 14.999L17.9932 7.049Z" fill="white"/>
</mask>
<g mask="url(#mask0_214_6499)">
</g>
</svg>
