<svg width="24" height="24" viewBox="0 0 24 24" fill="none" xmlns="http://www.w3.org/2000/svg">
<path fill-rule="evenodd" clip-rule="evenodd" d="M17.707 6.29276C17.316 5.90176 16.684 5.90176 16.293 6.29276L8 14.5858V8.99976C8 8.44776 7.553 7.99976 7 7.99976C6.447 7.99976 6 8.44776 6 8.99976V16.9998C6 17.5518 6.447 17.9998 7 17.9998H15C15.553 17.9998 16 17.5518 16 16.9998C16 16.4478 15.553 15.9998 15 15.9998H9.414L17.707 7.70676C18.098 7.31576 18.098 6.68376 17.707 6.29276Z" fill="#222B45"/>
<mask id="mask0_214_6879" style="mask-type:alpha" maskUnits="userSpaceOnUse" x="6" y="5" width="13" height="13">
<path fill-rule="evenodd" clip-rule="evenodd" d="M17.707 6.29276C17.316 5.90176 16.684 5.90176 16.293 6.29276L8 14.5858V8.99976C8 8.44776 7.553 7.99976 7 7.99976C6.447 7.99976 6 8.44776 6 8.99976V16.9998C6 17.5518 6.447 17.9998 7 17.9998H15C15.553 17.9998 16 17.5518 16 16.9998C16 16.4478 15.553 15.9998 15 15.9998H9.414L17.707 7.70676C18.098 7.31576 18.098 6.68376 17.707 6.29276Z" fill="white"/>
</mask>
<g mask="url(#mask0_214_6879)">
</g>
</svg>
