<svg width="24" height="24" viewBox="0 0 24 24" fill="none" xmlns="http://www.w3.org/2000/svg">
<path fill-rule="evenodd" clip-rule="evenodd" d="M14.2928 7.20701C13.9018 6.81601 13.9018 6.18401 14.2928 5.79301L17.2928 2.79301C17.6838 2.40201 18.3158 2.40201 18.7068 2.79301L21.7068 5.79301C21.9018 5.98801 21.9998 6.24401 21.9998 6.50001C21.9998 6.75601 21.9018 7.01201 21.7068 7.20701C21.3158 7.59801 20.6838 7.59801 20.2928 7.20701L18.9998 5.91401V17.91C18.9998 19.89 17.4168 21.5 15.4708 21.5H12.9998C12.4468 21.5 11.9998 21.053 11.9998 20.5C11.9998 19.947 12.4468 19.5 12.9998 19.5H15.4708C16.3138 19.5 16.9998 18.787 16.9998 17.91V5.91401L15.7068 7.20701C15.3158 7.59801 14.6838 7.59801 14.2928 7.20701ZM4.99976 18.0858V6.08981C4.99976 4.11081 6.58276 2.49981 8.52876 2.49981H10.9998C11.5528 2.49981 11.9998 2.94681 11.9998 3.49981C11.9998 4.05281 11.5528 4.49981 10.9998 4.49981H8.52876C7.68676 4.49981 6.99976 5.21281 6.99976 6.08981V18.0858L8.29276 16.7928C8.68376 16.4028 9.31576 16.4028 9.70676 16.7928C9.90176 16.9878 9.99976 17.2438 9.99976 17.4998C9.99976 17.7558 9.90176 18.0118 9.70676 18.2068L6.70676 21.2068C6.31576 21.5978 5.68376 21.5978 5.29276 21.2068L2.29276 18.2068C1.90176 17.8168 1.90176 17.1838 2.29276 16.7928C2.68376 16.4028 3.31576 16.4028 3.70676 16.7928L4.99976 18.0858Z" fill="#222B45"/>
<mask id="mask0_214_7312" style="mask-type:alpha" maskUnits="userSpaceOnUse" x="1" y="2" width="21" height="20">
<path fill-rule="evenodd" clip-rule="evenodd" d="M14.2928 7.20701C13.9018 6.81601 13.9018 6.18401 14.2928 5.79301L17.2928 2.79301C17.6838 2.40201 18.3158 2.40201 18.7068 2.79301L21.7068 5.79301C21.9018 5.98801 21.9998 6.24401 21.9998 6.50001C21.9998 6.75601 21.9018 7.01201 21.7068 7.20701C21.3158 7.59801 20.6838 7.59801 20.2928 7.20701L18.9998 5.91401V17.91C18.9998 19.89 17.4168 21.5 15.4708 21.5H12.9998C12.4468 21.5 11.9998 21.053 11.9998 20.5C11.9998 19.947 12.4468 19.5 12.9998 19.5H15.4708C16.3138 19.5 16.9998 18.787 16.9998 17.91V5.91401L15.7068 7.20701C15.3158 7.59801 14.6838 7.59801 14.2928 7.20701ZM4.99976 18.0858V6.08981C4.99976 4.11081 6.58276 2.49981 8.52876 2.49981H10.9998C11.5528 2.49981 11.9998 2.94681 11.9998 3.49981C11.9998 4.05281 11.5528 4.49981 10.9998 4.49981H8.52876C7.68676 4.49981 6.99976 5.21281 6.99976 6.08981V18.0858L8.29276 16.7928C8.68376 16.4028 9.31576 16.4028 9.70676 16.7928C9.90176 16.9878 9.99976 17.2438 9.99976 17.4998C9.99976 17.7558 9.90176 18.0118 9.70676 18.2068L6.70676 21.2068C6.31576 21.5978 5.68376 21.5978 5.29276 21.2068L2.29276 18.2068C1.90176 17.8168 1.90176 17.1838 2.29276 16.7928C2.68376 16.4028 3.31576 16.4028 3.70676 16.7928L4.99976 18.0858Z" fill="white"/>
</mask>
<g mask="url(#mask0_214_7312)">
</g>
</svg>
