<svg width="24" height="24" viewBox="0 0 24 24" fill="none" xmlns="http://www.w3.org/2000/svg">
<path fill-rule="evenodd" clip-rule="evenodd" d="M7.20676 9.70699C6.81576 10.098 6.18376 10.098 5.79276 9.70699L2.79276 6.70699C2.40176 6.31599 2.40176 5.68399 2.79276 5.293L5.79276 2.293C5.98776 2.09799 6.24376 1.99999 6.49976 1.99999C6.75576 1.99999 7.01176 2.09799 7.20676 2.293C7.59776 2.68399 7.59776 3.31599 7.20676 3.70699L5.91376 4.99999H17.9098C19.8898 4.99999 21.4998 6.58299 21.4998 8.52899V11C21.4998 11.553 21.0528 12 20.4998 12C19.9468 12 19.4998 11.553 19.4998 11V8.52899C19.4998 7.68599 18.7868 6.99999 17.9098 6.99999L5.91376 6.99999L7.20676 8.29299C7.59776 8.68399 7.59776 9.31599 7.20676 9.70699ZM18.0856 19H6.08956C4.11056 19 2.49956 17.417 2.49956 15.471V13C2.49956 12.447 2.94656 12 3.49956 12C4.05256 12 4.49956 12.447 4.49956 13V15.471C4.49956 16.313 5.21256 17 6.08956 17H18.0856L16.7926 15.707C16.4026 15.316 16.4026 14.684 16.7926 14.293C16.9876 14.098 17.2436 14 17.4996 14C17.7556 14 18.0116 14.098 18.2066 14.293L21.2066 17.293C21.5976 17.684 21.5976 18.316 21.2066 18.707L18.2066 21.707C17.8166 22.098 17.1836 22.098 16.7926 21.707C16.4026 21.316 16.4026 20.684 16.7926 20.293L18.0856 19Z" fill="#222B45"/>
<mask id="mask0_214_7319" style="mask-type:alpha" maskUnits="userSpaceOnUse" x="2" y="2" width="20" height="21">
<path fill-rule="evenodd" clip-rule="evenodd" d="M7.20676 9.70699C6.81576 10.098 6.18376 10.098 5.79276 9.70699L2.79276 6.70699C2.40176 6.31599 2.40176 5.68399 2.79276 5.293L5.79276 2.293C5.98776 2.09799 6.24376 1.99999 6.49976 1.99999C6.75576 1.99999 7.01176 2.09799 7.20676 2.293C7.59776 2.68399 7.59776 3.31599 7.20676 3.70699L5.91376 4.99999H17.9098C19.8898 4.99999 21.4998 6.58299 21.4998 8.52899V11C21.4998 11.553 21.0528 12 20.4998 12C19.9468 12 19.4998 11.553 19.4998 11V8.52899C19.4998 7.68599 18.7868 6.99999 17.9098 6.99999L5.91376 6.99999L7.20676 8.29299C7.59776 8.68399 7.59776 9.31599 7.20676 9.70699ZM18.0856 19H6.08956C4.11056 19 2.49956 17.417 2.49956 15.471V13C2.49956 12.447 2.94656 12 3.49956 12C4.05256 12 4.49956 12.447 4.49956 13V15.471C4.49956 16.313 5.21256 17 6.08956 17H18.0856L16.7926 15.707C16.4026 15.316 16.4026 14.684 16.7926 14.293C16.9876 14.098 17.2436 14 17.4996 14C17.7556 14 18.0116 14.098 18.2066 14.293L21.2066 17.293C21.5976 17.684 21.5976 18.316 21.2066 18.707L18.2066 21.707C17.8166 22.098 17.1836 22.098 16.7926 21.707C16.4026 21.316 16.4026 20.684 16.7926 20.293L18.0856 19Z" fill="white"/>
</mask>
<g mask="url(#mask0_214_7319)">
</g>
</svg>
