<svg width="24" height="24" viewBox="0 0 24 24" fill="none" xmlns="http://www.w3.org/2000/svg">
<path fill-rule="evenodd" clip-rule="evenodd" d="M11.1929 8.36425L11.4549 5.94325L10.3799 7.55125L8.93786 6.11025L12.0579 1.44425C12.3129 1.06025 12.7979 0.902249 13.2299 1.06025C13.6629 1.21725 13.9329 1.65025 13.8829 2.10725L13.1139 9.20025H18.9999C19.3689 9.20025 19.7079 9.40325 19.8819 9.72825C20.0559 10.0542 20.0359 10.4492 19.8309 10.7552L17.3279 14.5002L15.8869 13.0582L17.1289 11.2002H14.0279L11.1929 8.36425ZM20.7068 19.2928L4.70676 3.29285C4.31576 2.90185 3.68376 2.90185 3.29276 3.29285C2.90176 3.68385 2.90176 4.31585 3.29276 4.70685L19.2928 20.7069C19.4878 20.9018 19.7438 20.9998 19.9998 20.9998C20.2558 20.9998 20.5118 20.9018 20.7068 20.7069C21.0978 20.3158 21.0978 19.6838 20.7068 19.2928ZM12.5447 18.0564L12.8067 15.6354L9.97166 12.7994H6.87066L8.11266 10.9414L6.67166 9.49945L4.16866 13.2444C3.96366 13.5504 3.94366 13.9454 4.11766 14.2714C4.29166 14.5964 4.63066 14.7994 4.99966 14.7994H10.8857L10.1167 21.8924C10.0667 22.3494 10.3367 22.7824 10.7697 22.9394C10.8817 22.9804 10.9967 22.9994 11.1107 22.9994C11.4377 22.9994 11.7527 22.8394 11.9417 22.5554L15.0617 17.8895L13.6197 16.4484L12.5447 18.0564Z" fill="#222B45"/>
<mask id="mask0_214_6311" style="mask-type:alpha" maskUnits="userSpaceOnUse" x="2" y="0" width="19" height="23">
<path fill-rule="evenodd" clip-rule="evenodd" d="M11.1929 8.36425L11.4549 5.94325L10.3799 7.55125L8.93786 6.11025L12.0579 1.44425C12.3129 1.06025 12.7979 0.902249 13.2299 1.06025C13.6629 1.21725 13.9329 1.65025 13.8829 2.10725L13.1139 9.20025H18.9999C19.3689 9.20025 19.7079 9.40325 19.8819 9.72825C20.0559 10.0542 20.0359 10.4492 19.8309 10.7552L17.3279 14.5002L15.8869 13.0582L17.1289 11.2002H14.0279L11.1929 8.36425ZM20.7068 19.2928L4.70676 3.29285C4.31576 2.90185 3.68376 2.90185 3.29276 3.29285C2.90176 3.68385 2.90176 4.31585 3.29276 4.70685L19.2928 20.7069C19.4878 20.9018 19.7438 20.9998 19.9998 20.9998C20.2558 20.9998 20.5118 20.9018 20.7068 20.7069C21.0978 20.3158 21.0978 19.6838 20.7068 19.2928ZM12.5447 18.0564L12.8067 15.6354L9.97166 12.7994H6.87066L8.11266 10.9414L6.67166 9.49945L4.16866 13.2444C3.96366 13.5504 3.94366 13.9454 4.11766 14.2714C4.29166 14.5964 4.63066 14.7994 4.99966 14.7994H10.8857L10.1167 21.8924C10.0667 22.3494 10.3367 22.7824 10.7697 22.9394C10.8817 22.9804 10.9967 22.9994 11.1107 22.9994C11.4377 22.9994 11.7527 22.8394 11.9417 22.5554L15.0617 17.8895L13.6197 16.4484L12.5447 18.0564Z" fill="white"/>
</mask>
<g mask="url(#mask0_214_6311)">
</g>
</svg>
