<svg width="24" height="24" viewBox="0 0 24 24" fill="none" xmlns="http://www.w3.org/2000/svg">
<path fill-rule="evenodd" clip-rule="evenodd" d="M13 5.89914L7.899 9.39714C7.732 9.51014 7.535 9.57214 7.333 9.57214H3V14.4291H7.333C7.535 14.4291 7.732 14.4911 7.899 14.6041L13 18.1021V5.89914ZM15 4.00114V20.0011C15 20.3721 14.794 20.7121 14.466 20.8851C14.32 20.9621 14.16 21.0011 14 21.0011C13.802 21.0011 13.604 20.9421 13.435 20.8261L7.023 16.4291H2C1.448 16.4291 1 15.9821 1 15.4291V8.57214C1 8.01914 1.448 7.57214 2 7.57214H7.023L13.435 3.17514C13.74 2.96514 14.137 2.94214 14.466 3.11614C14.794 3.28914 15 3.62914 15 4.00114ZM19.138 5.23014C18.712 4.87814 18.082 4.93714 17.73 5.36314C17.377 5.78814 17.437 6.41914 17.862 6.77114C19.563 8.18014 20.5 10.0371 20.5 12.0011C20.5 13.9641 19.563 15.8211 17.862 17.2301C17.437 17.5831 17.377 18.2131 17.73 18.6381C17.928 18.8781 18.213 19.0011 18.5 19.0011C18.725 19.0011 18.951 18.9251 19.138 18.7711C21.306 16.9751 22.5 14.5701 22.5 12.0011C22.5 9.43114 21.306 7.02614 19.138 5.23014ZM17.779 15.6281C17.582 15.8731 17.292 16.0011 17 16.0011C16.779 16.0011 16.558 15.9281 16.373 15.7801C15.943 15.4331 15.875 14.8041 16.221 14.3741C17.256 13.0871 17.256 10.9141 16.221 9.62814C15.875 9.19714 15.943 8.56814 16.373 8.22114C16.803 7.87714 17.433 7.94414 17.779 8.37414C19.416 10.4081 19.416 13.5931 17.779 15.6281Z" fill="#222B45"/>
</svg>
