<svg width="24" height="24" viewBox="0 0 24 24" fill="none" xmlns="http://www.w3.org/2000/svg">
<path fill-rule="evenodd" clip-rule="evenodd" d="M14 5.89914L8.899 9.39714C8.732 9.51014 8.535 9.57214 8.333 9.57214H4V14.4291H8.333C8.535 14.4291 8.732 14.4911 8.899 14.6041L14 18.1021V5.89914ZM16 4.00114V20.0011C16 20.3721 15.794 20.7121 15.466 20.8851C15.32 20.9621 15.16 21.0011 15 21.0011C14.802 21.0011 14.604 20.9421 14.435 20.8261L8.023 16.4291H3C2.448 16.4291 2 15.9821 2 15.4291V8.57214C2 8.01914 2.448 7.57214 3 7.57214H8.023L14.435 3.17514C14.741 2.96514 15.138 2.94214 15.466 3.11614C15.794 3.28914 16 3.62914 16 4.00114ZM19.779 15.6281C19.582 15.8731 19.292 16.0011 19 16.0011C18.779 16.0011 18.558 15.9281 18.373 15.7801C17.943 15.4331 17.875 14.8041 18.221 14.3741C19.256 13.0871 19.256 10.9141 18.221 9.62814C17.875 9.19714 17.943 8.56814 18.373 8.22114C18.803 7.87714 19.433 7.94414 19.779 8.37414C21.416 10.4081 21.416 13.5931 19.779 15.6281Z" fill="#222B45"/>
</svg>
