<svg width="24" height="24" viewBox="0 0 24 24" fill="none" xmlns="http://www.w3.org/2000/svg">
<path fill-rule="evenodd" clip-rule="evenodd" d="M13.5 10.6712V5.89816L10.668 7.83916L9.229 6.40116L13.935 3.17416C14.24 2.96416 14.637 2.94116 14.966 3.11516C15.294 3.28816 15.5 3.62816 15.5 4.00016V12.6712L13.5 10.6712ZM4.707 3.29276C4.316 2.90176 3.684 2.90176 3.293 3.29276C2.902 3.68376 2.902 4.31576 3.293 4.70676L19.293 20.7068C19.488 20.9018 19.744 20.9998 20 20.9998C20.256 20.9998 20.512 20.9018 20.707 20.7068C21.098 20.3158 21.098 19.6838 20.707 19.2928L4.707 3.29276ZM16.9106 14.0818L18.3486 15.5208C19.9066 13.4828 19.8886 10.3738 18.2796 8.37276C17.9326 7.94276 17.3036 7.87576 16.8726 8.22076C16.4426 8.56676 16.3746 9.19576 16.7206 9.62676C17.6836 10.8228 17.7386 12.7778 16.9106 14.0818ZM19.222 16.3938C20.37 15.1208 21 13.5988 21 11.9998C21 10.0358 20.063 8.17976 18.362 6.77076C17.937 6.41776 17.877 5.78676 18.23 5.36176C18.582 4.93676 19.212 4.87776 19.638 5.22876C21.806 7.02476 23 9.43076 23 11.9998C23 14.1368 22.163 16.1548 20.637 17.8088L19.222 16.3938ZM13.5 18.1014L8.399 14.6034C8.232 14.4904 8.035 14.4284 7.833 14.4284H3.5V9.57136H6.743L4.743 7.57136H2.5C1.948 7.57136 1.5 8.01836 1.5 8.57136V15.4284C1.5 15.9814 1.948 16.4284 2.5 16.4284H7.523L13.935 20.8254C14.104 20.9414 14.302 20.9994 14.5 20.9994C14.66 20.9994 14.82 20.9614 14.966 20.8844C15.294 20.7114 15.5 20.3714 15.5 19.9994V18.3284L13.5 16.3284V18.1014Z" fill="#222B45"/>
<mask id="mask0_214_5680" style="mask-type:alpha" maskUnits="userSpaceOnUse" x="1" y="2" width="22" height="19">
<path fill-rule="evenodd" clip-rule="evenodd" d="M13.5 10.6712V5.89816L10.668 7.83916L9.229 6.40116L13.935 3.17416C14.24 2.96416 14.637 2.94116 14.966 3.11516C15.294 3.28816 15.5 3.62816 15.5 4.00016V12.6712L13.5 10.6712ZM4.707 3.29276C4.316 2.90176 3.684 2.90176 3.293 3.29276C2.902 3.68376 2.902 4.31576 3.293 4.70676L19.293 20.7068C19.488 20.9018 19.744 20.9998 20 20.9998C20.256 20.9998 20.512 20.9018 20.707 20.7068C21.098 20.3158 21.098 19.6838 20.707 19.2928L4.707 3.29276ZM16.9106 14.0818L18.3486 15.5208C19.9066 13.4828 19.8886 10.3738 18.2796 8.37276C17.9326 7.94276 17.3036 7.87576 16.8726 8.22076C16.4426 8.56676 16.3746 9.19576 16.7206 9.62676C17.6836 10.8228 17.7386 12.7778 16.9106 14.0818ZM19.222 16.3938C20.37 15.1208 21 13.5988 21 11.9998C21 10.0358 20.063 8.17976 18.362 6.77076C17.937 6.41776 17.877 5.78676 18.23 5.36176C18.582 4.93676 19.212 4.87776 19.638 5.22876C21.806 7.02476 23 9.43076 23 11.9998C23 14.1368 22.163 16.1548 20.637 17.8088L19.222 16.3938ZM13.5 18.1014L8.399 14.6034C8.232 14.4904 8.035 14.4284 7.833 14.4284H3.5V9.57136H6.743L4.743 7.57136H2.5C1.948 7.57136 1.5 8.01836 1.5 8.57136V15.4284C1.5 15.9814 1.948 16.4284 2.5 16.4284H7.523L13.935 20.8254C14.104 20.9414 14.302 20.9994 14.5 20.9994C14.66 20.9994 14.82 20.9614 14.966 20.8844C15.294 20.7114 15.5 20.3714 15.5 19.9994V18.3284L13.5 16.3284V18.1014Z" fill="white"/>
</mask>
<g mask="url(#mask0_214_5680)">
</g>
</svg>
