<svg width="24" height="24" viewBox="0 0 24 24" fill="none" xmlns="http://www.w3.org/2000/svg">
<path fill-rule="evenodd" clip-rule="evenodd" d="M16.6163 6.21284C16.1823 5.87084 15.5543 5.94884 15.2133 6.38384L8.15833 15.3918L4.77933 11.1948C4.43133 10.7658 3.80333 10.6958 3.37333 11.0428C2.94233 11.3898 2.87533 12.0198 3.22033 12.4488L7.38933 17.6268C7.58033 17.8628 7.86633 17.9998 8.16933 17.9998H8.17633C8.48033 17.9978 8.76833 17.8568 8.95633 17.6158L16.7873 7.61584C17.1283 7.18184 17.0523 6.55284 16.6163 6.21284ZM21.6163 6.21284C21.1813 5.87084 20.5543 5.94884 20.2133 6.38384L13.1583 15.3918L12.5543 14.6428L11.2893 16.2598L12.3893 17.6268C12.5803 17.8628 12.8663 17.9998 13.1693 17.9998H13.1763C13.4803 17.9978 13.7683 17.8568 13.9563 17.6158L21.7873 7.61584C22.1283 7.18184 22.0523 6.55284 21.6163 6.21284ZM9.98003 11.4444L8.71303 13.0604L8.22103 12.4494C7.87503 12.0194 7.94203 11.3894 8.37303 11.0424C8.80403 10.6964 9.43303 10.7654 9.77903 11.1954L9.98003 11.4444Z" fill="#222B45"/>
<mask id="mask0_214_7080" style="mask-type:alpha" maskUnits="userSpaceOnUse" x="3" y="5" width="20" height="13">
<path fill-rule="evenodd" clip-rule="evenodd" d="M16.6163 6.21284C16.1823 5.87084 15.5543 5.94884 15.2133 6.38384L8.15833 15.3918L4.77933 11.1948C4.43133 10.7658 3.80333 10.6958 3.37333 11.0428C2.94233 11.3898 2.87533 12.0198 3.22033 12.4488L7.38933 17.6268C7.58033 17.8628 7.86633 17.9998 8.16933 17.9998H8.17633C8.48033 17.9978 8.76833 17.8568 8.95633 17.6158L16.7873 7.61584C17.1283 7.18184 17.0523 6.55284 16.6163 6.21284ZM21.6163 6.21284C21.1813 5.87084 20.5543 5.94884 20.2133 6.38384L13.1583 15.3918L12.5543 14.6428L11.2893 16.2598L12.3893 17.6268C12.5803 17.8628 12.8663 17.9998 13.1693 17.9998H13.1763C13.4803 17.9978 13.7683 17.8568 13.9563 17.6158L21.7873 7.61584C22.1283 7.18184 22.0523 6.55284 21.6163 6.21284ZM9.98003 11.4444L8.71303 13.0604L8.22103 12.4494C7.87503 12.0194 7.94203 11.3894 8.37303 11.0424C8.80403 10.6964 9.43303 10.7654 9.77903 11.1954L9.98003 11.4444Z" fill="white"/>
</mask>
<g mask="url(#mask0_214_7080)">
</g>
</svg>
