<svg width="24" height="24" viewBox="0 0 24 24" fill="none" xmlns="http://www.w3.org/2000/svg">
<path fill-rule="evenodd" clip-rule="evenodd" d="M13.0002 18.2494V14.1784L15.4672 16.5574L13.0002 18.2494ZM13.0002 5.76042L15.4972 7.49342L13.0002 9.85042V5.76042ZM13.6292 12.0064L17.6442 8.21642C17.8952 7.97842 18.0232 7.64642 17.9972 7.30442C17.9702 6.96142 17.7922 6.65142 17.5072 6.45442L12.8332 3.21042C12.4742 2.95842 12.0082 2.93042 11.6182 3.13342C11.2372 3.33242 11.0002 3.72042 11.0002 4.14542V10.3514L7.8072 6.37442C7.4602 5.94242 6.8322 5.87442 6.4012 6.22042C5.9702 6.56542 5.9012 7.19542 6.2472 7.62542L9.7212 11.9524L6.2162 16.3794C5.8732 16.8124 5.9462 17.4404 6.3792 17.7844C6.5632 17.9294 6.7822 17.9994 7.0002 17.9994C7.2942 17.9994 7.5862 17.8704 7.7842 17.6204L11.0002 13.5594V19.8534C11.0002 20.2774 11.2352 20.6644 11.6132 20.8644C11.7872 20.9554 11.9752 21.0004 12.1632 21.0004C12.3952 21.0004 12.6262 20.9314 12.8272 20.7944L17.4692 17.6084C17.7542 17.4124 17.9342 17.1034 17.9612 16.7614C17.9892 16.4204 17.8632 16.0884 17.6162 15.8514L13.6292 12.0064Z" fill="#222B45"/>
<mask id="mask0_214_5990" style="mask-type:alpha" maskUnits="userSpaceOnUse" x="6" y="2" width="13" height="20">
<path fill-rule="evenodd" clip-rule="evenodd" d="M13.0002 18.2494V14.1784L15.4672 16.5574L13.0002 18.2494ZM13.0002 5.76042L15.4972 7.49342L13.0002 9.85042V5.76042ZM13.6292 12.0064L17.6442 8.21642C17.8952 7.97842 18.0232 7.64642 17.9972 7.30442C17.9702 6.96142 17.7922 6.65142 17.5072 6.45442L12.8332 3.21042C12.4742 2.95842 12.0082 2.93042 11.6182 3.13342C11.2372 3.33242 11.0002 3.72042 11.0002 4.14542V10.3514L7.8072 6.37442C7.4602 5.94242 6.8322 5.87442 6.4012 6.22042C5.9702 6.56542 5.9012 7.19542 6.2472 7.62542L9.7212 11.9524L6.2162 16.3794C5.8732 16.8124 5.9462 17.4404 6.3792 17.7844C6.5632 17.9294 6.7822 17.9994 7.0002 17.9994C7.2942 17.9994 7.5862 17.8704 7.7842 17.6204L11.0002 13.5594V19.8534C11.0002 20.2774 11.2352 20.6644 11.6132 20.8644C11.7872 20.9554 11.9752 21.0004 12.1632 21.0004C12.3952 21.0004 12.6262 20.9314 12.8272 20.7944L17.4692 17.6084C17.7542 17.4124 17.9342 17.1034 17.9612 16.7614C17.9892 16.4204 17.8632 16.0884 17.6162 15.8514L13.6292 12.0064Z" fill="white"/>
</mask>
<g mask="url(#mask0_214_5990)">
</g>
</svg>
