<svg width="24" height="24" viewBox="0 0 24 24" fill="none" xmlns="http://www.w3.org/2000/svg">
<path fill-rule="evenodd" clip-rule="evenodd" d="M19.168 6.467L17.73 7.857C17.536 8.044 17.285 8.138 17.035 8.138C16.773 8.138 16.512 8.035 16.316 7.832C15.933 7.436 15.943 6.802 16.341 6.419L17.779 5.03C18.176 4.647 18.812 4.657 19.192 5.054C19.576 5.45 19.565 6.084 19.168 6.467ZM7.684 7.832C7.488 8.035 7.227 8.138 6.965 8.138C6.715 8.138 6.464 8.045 6.27 7.858L4.831 6.468C4.434 6.084 4.423 5.45 4.807 5.054C5.191 4.657 5.823 4.645 6.221 5.029L7.66 6.418C8.057 6.802 8.068 7.436 7.684 7.832ZM6 12C6 12.553 5.552 13 5 13H3C2.448 13 2 12.553 2 12C2 11.447 2.448 11 3 11H5C5.552 11 6 11.447 6 12ZM22 12C22 12.553 21.553 13 21 13H19C18.447 13 18 12.553 18 12C18 11.447 18.447 11 19 11H21C21.553 11 22 11.447 22 12ZM11 5V3C11 2.447 11.448 2 12 2C12.552 2 13 2.447 13 3V5C13 5.553 12.552 6 12 6C11.448 6 11 5.553 11 5ZM13.501 14.593C13.191 14.772 13 15.103 13 15.46V20H11V15.46C11 15.103 10.809 14.772 10.499 14.593C9.574 14.062 9 13.068 9 12C9 10.346 10.346 9 12 9C13.654 9 15 10.346 15 12C15 13.068 14.426 14.062 13.501 14.593ZM12 7C9.243 7 7 9.243 7 12C7 13.579 7.753 15.062 9 15.996V20C9 21.103 9.897 22 11 22H13C14.103 22 15 21.103 15 20V15.996C16.246 15.062 17 13.579 17 12C17 9.243 14.757 7 12 7Z" fill="#222B45"/>
</svg>
