<svg width="24" height="24" viewBox="0 0 24 24" fill="none" xmlns="http://www.w3.org/2000/svg">
<path fill-rule="evenodd" clip-rule="evenodd" d="M5.59924 3H18.4002C19.8342 3 21.0002 4.246 21.0002 5.777V18.223C21.0002 19.754 19.8342 21 18.4002 21H17.0002C16.4472 21 16.0002 20.553 16.0002 20C16.0002 19.447 16.4472 19 17.0002 19H18.4002C18.7252 19 19.0002 18.644 19.0002 18.223V5.777C19.0002 5.356 18.7252 5 18.4002 5H5.59924C5.27424 5 5.00024 5.356 5.00024 5.777V7C5.00024 7.553 4.55224 8 4.00024 8C3.44724 8 3.00024 7.553 3.00024 7V5.777C3.00024 4.246 4.16624 3 5.59924 3ZM3.00914 15.17C2.93314 14.623 3.31614 14.118 3.86314 14.043C5.28314 13.849 6.66914 14.314 7.67714 15.321C9.01414 16.66 9.37714 18.71 8.57814 20.423C8.40814 20.786 8.04814 21 7.67114 21C7.52914 21 7.38514 20.97 7.24914 20.906C6.74914 20.673 6.53214 20.078 6.76514 19.577C7.21014 18.624 7.00914 17.481 6.26314 16.736C5.70114 16.175 4.92714 15.918 4.13614 16.023C3.58314 16.102 3.08414 15.717 3.00914 15.17ZM3.86214 10.0771C3.31514 10.1531 2.93314 10.6581 3.00914 11.2051C3.08514 11.7511 3.58814 12.1341 4.13714 12.0571C6.02814 11.7991 7.88514 12.4171 9.23414 13.7651C10.7901 15.3221 11.3751 17.6041 10.7591 19.7211C10.6051 20.2511 10.9101 20.8061 11.4401 20.9601C11.5341 20.9871 11.6281 21.0001 11.7191 21.0001C12.1531 21.0001 12.5521 20.7171 12.6791 20.2791C13.4991 17.4631 12.7201 14.4251 10.6481 12.3511C8.85314 10.5561 6.38414 9.7261 3.86214 10.0771ZM2.99984 19C2.99984 18.447 3.44684 18 3.99984 18C4.55284 18 4.99984 18.447 4.99984 19C4.99984 19.553 4.55284 20 3.99984 20C3.44684 20 2.99984 19.553 2.99984 19Z" fill="#222B45"/>
<mask id="mask0_214_5767" style="mask-type:alpha" maskUnits="userSpaceOnUse" x="2" y="3" width="19" height="18">
<path fill-rule="evenodd" clip-rule="evenodd" d="M5.59924 3H18.4002C19.8342 3 21.0002 4.246 21.0002 5.777V18.223C21.0002 19.754 19.8342 21 18.4002 21H17.0002C16.4472 21 16.0002 20.553 16.0002 20C16.0002 19.447 16.4472 19 17.0002 19H18.4002C18.7252 19 19.0002 18.644 19.0002 18.223V5.777C19.0002 5.356 18.7252 5 18.4002 5H5.59924C5.27424 5 5.00024 5.356 5.00024 5.777V7C5.00024 7.553 4.55224 8 4.00024 8C3.44724 8 3.00024 7.553 3.00024 7V5.777C3.00024 4.246 4.16624 3 5.59924 3ZM3.00914 15.17C2.93314 14.623 3.31614 14.118 3.86314 14.043C5.28314 13.849 6.66914 14.314 7.67714 15.321C9.01414 16.66 9.37714 18.71 8.57814 20.423C8.40814 20.786 8.04814 21 7.67114 21C7.52914 21 7.38514 20.97 7.24914 20.906C6.74914 20.673 6.53214 20.078 6.76514 19.577C7.21014 18.624 7.00914 17.481 6.26314 16.736C5.70114 16.175 4.92714 15.918 4.13614 16.023C3.58314 16.102 3.08414 15.717 3.00914 15.17ZM3.86214 10.0771C3.31514 10.1531 2.93314 10.6581 3.00914 11.2051C3.08514 11.7511 3.58814 12.1341 4.13714 12.0571C6.02814 11.7991 7.88514 12.4171 9.23414 13.7651C10.7901 15.3221 11.3751 17.6041 10.7591 19.7211C10.6051 20.2511 10.9101 20.8061 11.4401 20.9601C11.5341 20.9871 11.6281 21.0001 11.7191 21.0001C12.1531 21.0001 12.5521 20.7171 12.6791 20.2791C13.4991 17.4631 12.7201 14.4251 10.6481 12.3511C8.85314 10.5561 6.38414 9.7261 3.86214 10.0771ZM2.99984 19C2.99984 18.447 3.44684 18 3.99984 18C4.55284 18 4.99984 18.447 4.99984 19C4.99984 19.553 4.55284 20 3.99984 20C3.44684 20 2.99984 19.553 2.99984 19Z" fill="white"/>
</mask>
<g mask="url(#mask0_214_5767)">
</g>
</svg>
