<svg width="24" height="24" viewBox="0 0 24 24" fill="none" xmlns="http://www.w3.org/2000/svg">
<path fill-rule="evenodd" clip-rule="evenodd" d="M21.7795 11.3732L16.9515 5.37318C16.6035 4.94318 15.9745 4.87318 15.5455 5.22118C15.1145 5.56718 15.0475 6.19618 15.3925 6.62718L19.7085 11.9892L15.2315 17.3592C14.8785 17.7842 14.9355 18.4152 15.3595 18.7692C15.5475 18.9242 15.7735 19.0002 15.9995 19.0002C16.2865 19.0002 16.5705 18.8782 16.7685 18.6412L21.7685 12.6412C22.0735 12.2742 22.0785 11.7442 21.7795 11.3732ZM4.29216 12.0109L8.76916 6.64088C9.12216 6.21588 9.06416 5.58488 8.64116 5.23188C8.21516 4.87888 7.58616 4.93588 7.23116 5.35988L2.23116 11.3599C1.92716 11.7259 1.92216 12.2559 2.22116 12.6269L7.04916 18.6269C7.24716 18.8719 7.53616 18.9999 7.82916 18.9999C8.04916 18.9999 8.27116 18.9279 8.45516 18.7799C8.88616 18.4329 8.95316 17.8039 8.60716 17.3729L4.29216 12.0109ZM14.3059 11.3844C14.7019 11.0004 15.3369 11.0134 15.7199 11.4094C16.1029 11.8064 16.0919 12.4394 15.6949 12.8234L12.6949 15.7204C12.5009 15.9064 12.2499 16.0004 11.9999 16.0004C11.7439 16.0004 11.4889 15.9024 11.2929 15.7074L8.29286 12.7074C7.90286 12.3164 7.90286 11.6834 8.29286 11.2934C8.68386 10.9024 9.31686 10.9024 9.70686 11.2934L10.9999 12.5854V8.00038C10.9999 7.44738 11.4479 7.00038 11.9999 7.00038C12.5529 7.00038 12.9999 7.44738 12.9999 8.00038V12.6444L14.3059 11.3844Z" fill="#222B45"/>
<mask id="mask0_214_6984" style="mask-type:alpha" maskUnits="userSpaceOnUse" x="2" y="4" width="21" height="15">
<path fill-rule="evenodd" clip-rule="evenodd" d="M21.7795 11.3732L16.9515 5.37318C16.6035 4.94318 15.9745 4.87318 15.5455 5.22118C15.1145 5.56718 15.0475 6.19618 15.3925 6.62718L19.7085 11.9892L15.2315 17.3592C14.8785 17.7842 14.9355 18.4152 15.3595 18.7692C15.5475 18.9242 15.7735 19.0002 15.9995 19.0002C16.2865 19.0002 16.5705 18.8782 16.7685 18.6412L21.7685 12.6412C22.0735 12.2742 22.0785 11.7442 21.7795 11.3732ZM4.29216 12.0109L8.76916 6.64088C9.12216 6.21588 9.06416 5.58488 8.64116 5.23188C8.21516 4.87888 7.58616 4.93588 7.23116 5.35988L2.23116 11.3599C1.92716 11.7259 1.92216 12.2559 2.22116 12.6269L7.04916 18.6269C7.24716 18.8719 7.53616 18.9999 7.82916 18.9999C8.04916 18.9999 8.27116 18.9279 8.45516 18.7799C8.88616 18.4329 8.95316 17.8039 8.60716 17.3729L4.29216 12.0109ZM14.3059 11.3844C14.7019 11.0004 15.3369 11.0134 15.7199 11.4094C16.1029 11.8064 16.0919 12.4394 15.6949 12.8234L12.6949 15.7204C12.5009 15.9064 12.2499 16.0004 11.9999 16.0004C11.7439 16.0004 11.4889 15.9024 11.2929 15.7074L8.29286 12.7074C7.90286 12.3164 7.90286 11.6834 8.29286 11.2934C8.68386 10.9024 9.31686 10.9024 9.70686 11.2934L10.9999 12.5854V8.00038C10.9999 7.44738 11.4479 7.00038 11.9999 7.00038C12.5529 7.00038 12.9999 7.44738 12.9999 8.00038V12.6444L14.3059 11.3844Z" fill="white"/>
</mask>
<g mask="url(#mask0_214_6984)">
</g>
</svg>
