<svg width="24" height="24" viewBox="0 0 24 24" fill="none" xmlns="http://www.w3.org/2000/svg">
<path fill-rule="evenodd" clip-rule="evenodd" d="M16.9513 5.37318L21.7793 11.3732C22.0783 11.7442 22.0733 12.2742 21.7683 12.6412L16.7683 18.6412C16.5703 18.8782 16.2863 19.0002 15.9993 19.0002C15.7733 19.0002 15.5473 18.9242 15.3593 18.7692C14.9353 18.4152 14.8783 17.7842 15.2313 17.3592L19.7083 11.9892L15.3923 6.62718C15.0473 6.19618 15.1143 5.56718 15.5453 5.22118C15.9753 4.87318 16.6043 4.94318 16.9513 5.37318ZM7.23155 5.35958C7.58455 4.93558 8.21355 4.87858 8.64055 5.23158C9.06455 5.58558 9.12155 6.21558 8.76855 6.64058L4.29155 12.0106L8.60755 17.3736C8.95255 17.8036 8.88555 18.4326 8.45455 18.7796C8.27055 18.9276 8.04855 19.0006 7.82855 19.0006C7.53655 19.0006 7.24655 18.8726 7.04855 18.6276L2.22055 12.6276C1.92155 12.2556 1.92655 11.7256 2.23155 11.3596L7.23155 5.35958Z" fill="#222B45"/>
<mask id="mask0_214_6819" style="mask-type:alpha" maskUnits="userSpaceOnUse" x="1" y="4" width="22" height="16">
<path fill-rule="evenodd" clip-rule="evenodd" d="M16.9513 5.37318L21.7793 11.3732C22.0783 11.7442 22.0733 12.2742 21.7683 12.6412L16.7683 18.6412C16.5703 18.8782 16.2863 19.0002 15.9993 19.0002C15.7733 19.0002 15.5473 18.9242 15.3593 18.7692C14.9353 18.4152 14.8783 17.7842 15.2313 17.3592L19.7083 11.9892L15.3923 6.62718C15.0473 6.19618 15.1143 5.56718 15.5453 5.22118C15.9753 4.87318 16.6043 4.94318 16.9513 5.37318ZM7.23155 5.35958C7.58455 4.93558 8.21355 4.87858 8.64055 5.23158C9.06455 5.58558 9.12155 6.21558 8.76855 6.64058L4.29155 12.0106L8.60755 17.3736C8.95255 17.8036 8.88555 18.4326 8.45455 18.7796C8.27055 18.9276 8.04855 19.0006 7.82855 19.0006C7.53655 19.0006 7.24655 18.8726 7.04855 18.6276L2.22055 12.6276C1.92155 12.2556 1.92655 11.7256 2.23155 11.3596L7.23155 5.35958Z" fill="white"/>
</mask>
<g mask="url(#mask0_214_6819)">
</g>
</svg>
