<svg width="24" height="24" viewBox="0 0 24 24" fill="none" xmlns="http://www.w3.org/2000/svg">
<path fill-rule="evenodd" clip-rule="evenodd" d="M16.4157 8.99876L19.0007 8.99976C19.5527 8.99976 20.0007 9.44776 20.0007 10.0008C19.9997 10.5528 19.5517 10.9998 19.0007 10.9998H18.9997L14.0247 10.9968C13.4747 10.9968 13.0277 10.5518 13.0247 10.0018L13.0007 5.00476C12.9977 4.45276 13.4427 4.00276 13.9957 3.99976H14.0007C14.5507 3.99976 14.9977 4.44376 15.0007 4.99476L15.0127 7.57276L18.2927 4.29276C18.6837 3.90176 19.3167 3.90176 19.7077 4.29276C20.0977 4.68376 20.0977 5.31576 19.7077 5.70676L16.4157 8.99876ZM5.00474 13.0002L10.0017 13.0252C10.5517 13.0282 10.9967 13.4742 10.9967 14.0242L11.0007 18.9992C11.0007 19.5512 10.5527 20.0002 10.0007 20.0002C9.44774 20.0002 9.00074 19.5522 9.00074 19.0012L8.99874 16.4162L5.70774 19.7072C5.51174 19.9022 5.25574 20.0002 5.00074 20.0002C4.74474 20.0002 4.48874 19.9022 4.29374 19.7072C3.90274 19.3162 3.90274 18.6832 4.29374 18.2932L7.57274 15.0132L4.99574 15.0002C4.44274 14.9972 3.99774 14.5462 4.00074 13.9952C4.00274 13.4442 4.45074 13.0002 5.00074 13.0002H5.00474Z" fill="#222B45"/>
<mask id="mask0_214_6953" style="mask-type:alpha" maskUnits="userSpaceOnUse" x="4" y="3" width="17" height="17">
<path fill-rule="evenodd" clip-rule="evenodd" d="M16.4157 8.99876L19.0007 8.99976C19.5527 8.99976 20.0007 9.44776 20.0007 10.0008C19.9997 10.5528 19.5517 10.9998 19.0007 10.9998H18.9997L14.0247 10.9968C13.4747 10.9968 13.0277 10.5518 13.0247 10.0018L13.0007 5.00476C12.9977 4.45276 13.4427 4.00276 13.9957 3.99976H14.0007C14.5507 3.99976 14.9977 4.44376 15.0007 4.99476L15.0127 7.57276L18.2927 4.29276C18.6837 3.90176 19.3167 3.90176 19.7077 4.29276C20.0977 4.68376 20.0977 5.31576 19.7077 5.70676L16.4157 8.99876ZM5.00474 13.0002L10.0017 13.0252C10.5517 13.0282 10.9967 13.4742 10.9967 14.0242L11.0007 18.9992C11.0007 19.5512 10.5527 20.0002 10.0007 20.0002C9.44774 20.0002 9.00074 19.5522 9.00074 19.0012L8.99874 16.4162L5.70774 19.7072C5.51174 19.9022 5.25574 20.0002 5.00074 20.0002C4.74474 20.0002 4.48874 19.9022 4.29374 19.7072C3.90274 19.3162 3.90274 18.6832 4.29374 18.2932L7.57274 15.0132L4.99574 15.0002C4.44274 14.9972 3.99774 14.5462 4.00074 13.9952C4.00274 13.4442 4.45074 13.0002 5.00074 13.0002H5.00474Z" fill="white"/>
</mask>
<g mask="url(#mask0_214_6953)">
</g>
</svg>
