<svg width="24" height="24" viewBox="0 0 24 24" fill="none" xmlns="http://www.w3.org/2000/svg">
<path fill-rule="evenodd" clip-rule="evenodd" d="M16.0559 10.6415L13.3599 7.94553L15.2719 6.03453L17.9659 8.72853L16.0559 10.6415ZM9.0789 17.6245L6.1029 17.8955L6.3669 14.9395L11.9459 9.35953L14.6419 12.0555L9.0789 17.6245ZM19.4029 7.33653L16.6629 4.59753C15.8959 3.82953 14.6769 3.80153 13.9489 4.52953L11.9459 6.53153L10.7069 5.29253C10.3169 4.90253 9.6839 4.90253 9.2929 5.29253C8.9029 5.68353 8.9029 6.31653 9.2929 6.70653L10.5319 7.94553L4.9519 13.5255C4.6269 13.8505 4.4249 14.2825 4.3829 14.7395L4.0039 18.9095C3.9779 19.2045 4.0829 19.4965 4.2929 19.7065C4.4819 19.8955 4.7369 19.9995 4.9999 19.9995C5.0309 19.9995 5.0609 19.9985 5.0909 19.9955L9.2609 19.6175C9.7179 19.5755 10.1499 19.3725 10.4749 19.0475L16.0549 13.4685L17.2929 14.7065C17.4889 14.9025 17.7439 14.9995 17.9999 14.9995C18.2559 14.9995 18.5119 14.9025 18.7069 14.7065C19.0979 14.3165 19.0979 13.6835 18.7069 13.2925L17.4689 12.0545L19.4709 10.0515C20.2009 9.32253 20.1699 8.10453 19.4029 7.33653Z" fill="#222B45"/>
<mask id="mask0_214_5560" style="mask-type:alpha" maskUnits="userSpaceOnUse" x="4" y="4" width="16" height="16">
<path fill-rule="evenodd" clip-rule="evenodd" d="M16.0559 10.6415L13.3599 7.94553L15.2719 6.03453L17.9659 8.72853L16.0559 10.6415ZM9.0789 17.6245L6.1029 17.8955L6.3669 14.9395L11.9459 9.35953L14.6419 12.0555L9.0789 17.6245ZM19.4029 7.33653L16.6629 4.59753C15.8959 3.82953 14.6769 3.80153 13.9489 4.52953L11.9459 6.53153L10.7069 5.29253C10.3169 4.90253 9.6839 4.90253 9.2929 5.29253C8.9029 5.68353 8.9029 6.31653 9.2929 6.70653L10.5319 7.94553L4.9519 13.5255C4.6269 13.8505 4.4249 14.2825 4.3829 14.7395L4.0039 18.9095C3.9779 19.2045 4.0829 19.4965 4.2929 19.7065C4.4819 19.8955 4.7369 19.9995 4.9999 19.9995C5.0309 19.9995 5.0609 19.9985 5.0909 19.9955L9.2609 19.6175C9.7179 19.5755 10.1499 19.3725 10.4749 19.0475L16.0549 13.4685L17.2929 14.7065C17.4889 14.9025 17.7439 14.9995 17.9999 14.9995C18.2559 14.9995 18.5119 14.9025 18.7069 14.7065C19.0979 14.3165 19.0979 13.6835 18.7069 13.2925L17.4689 12.0545L19.4709 10.0515C20.2009 9.32253 20.1699 8.10453 19.4029 7.33653Z" fill="white"/>
</mask>
<g mask="url(#mask0_214_5560)">
</g>
</svg>
