<svg width="24" height="24" viewBox="0 0 24 24" fill="none" xmlns="http://www.w3.org/2000/svg">
<path fill-rule="evenodd" clip-rule="evenodd" d="M8.55551 16C8.24951 16 7.99951 15.751 7.99951 15.444V8H15.4445C15.7505 8 15.9995 8.249 15.9995 8.556V16H8.55551ZM20.9995 16H17.9995V8.556C17.9995 7.146 16.8535 6 15.4445 6H7.99951V3C7.99951 2.447 7.55251 2 6.99951 2C6.44751 2 5.99951 2.447 5.99951 3V6H2.99951C2.44751 6 1.99951 6.447 1.99951 7C1.99951 7.553 2.44751 8 2.99951 8H5.99951V15.444C5.99951 16.854 7.14651 18 8.55551 18H15.9995V21C15.9995 21.553 16.4475 22 16.9995 22C17.5525 22 17.9995 21.553 17.9995 21V18H20.9995C21.5525 18 21.9995 17.553 21.9995 17C21.9995 16.447 21.5525 16 20.9995 16Z" fill="#222B45"/>
<mask id="mask0_214_5693" style="mask-type:alpha" maskUnits="userSpaceOnUse" x="1" y="2" width="21" height="20">
<path fill-rule="evenodd" clip-rule="evenodd" d="M8.55551 16C8.24951 16 7.99951 15.751 7.99951 15.444V8H15.4445C15.7505 8 15.9995 8.249 15.9995 8.556V16H8.55551ZM20.9995 16H17.9995V8.556C17.9995 7.146 16.8535 6 15.4445 6H7.99951V3C7.99951 2.447 7.55251 2 6.99951 2C6.44751 2 5.99951 2.447 5.99951 3V6H2.99951C2.44751 6 1.99951 6.447 1.99951 7C1.99951 7.553 2.44751 8 2.99951 8H5.99951V15.444C5.99951 16.854 7.14651 18 8.55551 18H15.9995V21C15.9995 21.553 16.4475 22 16.9995 22C17.5525 22 17.9995 21.553 17.9995 21V18H20.9995C21.5525 18 21.9995 17.553 21.9995 17C21.9995 16.447 21.5525 16 20.9995 16Z" fill="white"/>
</mask>
<g mask="url(#mask0_214_5693)">
</g>
</svg>
