<svg width="24" height="24" viewBox="0 0 24 24" fill="none" xmlns="http://www.w3.org/2000/svg">
<path fill-rule="evenodd" clip-rule="evenodd" d="M18.6906 15.9628L13.0006 18.6068V11.8908L19.0006 9.10379V15.5388C19.0006 15.7128 18.8826 15.8748 18.6906 15.9628ZM5.30357 15.9638C5.11457 15.8758 4.99857 15.7138 5.00057 15.5318V9.10379L11.0006 11.8908V18.6088L5.30357 15.9638ZM11.7076 5.06379C11.7986 5.02079 11.8996 4.99979 12.0006 4.99979C12.1006 4.99979 12.2016 5.02079 12.2926 5.06379L17.6216 7.53779L12.0006 10.1498L6.37857 7.53779L11.7076 5.06379ZM20.6566 7.25879C20.6536 7.25079 20.6546 7.24179 20.6506 7.23379C20.6476 7.22579 20.6396 7.22079 20.6346 7.21279C20.5886 7.13679 20.5326 7.06979 20.4796 6.99979C20.4486 6.96579 20.4236 6.92779 20.3896 6.89879C20.1546 6.62279 19.8776 6.37979 19.5336 6.22079L13.1336 3.24779C13.1326 3.24779 13.1316 3.24779 13.1316 3.24679C12.4126 2.91479 11.5876 2.91579 10.8666 3.24779L4.46957 6.21979C4.12557 6.37879 3.84757 6.62079 3.61257 6.89679C3.57557 6.92779 3.54857 6.96979 3.51557 7.00679C3.46357 7.07379 3.41057 7.13879 3.36657 7.21079C3.36157 7.21979 3.35357 7.22579 3.34957 7.23379C3.34557 7.24279 3.34657 7.25179 3.34257 7.26079C3.13157 7.62279 3.00057 8.02979 3.00057 8.45779V15.5248C2.99257 16.4748 3.56457 17.3588 4.45857 17.7768L10.8576 20.7488C11.2196 20.9178 11.6076 21.0018 11.9966 21.0018C12.3846 21.0018 12.7726 20.9178 13.1336 20.7498L19.5306 17.7778C20.4226 17.3658 20.9996 16.4878 21.0006 15.5398V8.45679C20.9996 8.02879 20.8686 7.62179 20.6566 7.25879Z" fill="#222B45"/>
<mask id="mask0_214_5549" style="mask-type:alpha" maskUnits="userSpaceOnUse" x="3" y="2" width="19" height="20">
<path fill-rule="evenodd" clip-rule="evenodd" d="M18.6906 15.9628L13.0006 18.6068V11.8908L19.0006 9.10379V15.5388C19.0006 15.7128 18.8826 15.8748 18.6906 15.9628ZM5.30357 15.9638C5.11457 15.8758 4.99857 15.7138 5.00057 15.5318V9.10379L11.0006 11.8908V18.6088L5.30357 15.9638ZM11.7076 5.06379C11.7986 5.02079 11.8996 4.99979 12.0006 4.99979C12.1006 4.99979 12.2016 5.02079 12.2926 5.06379L17.6216 7.53779L12.0006 10.1498L6.37857 7.53779L11.7076 5.06379ZM20.6566 7.25879C20.6536 7.25079 20.6546 7.24179 20.6506 7.23379C20.6476 7.22579 20.6396 7.22079 20.6346 7.21279C20.5886 7.13679 20.5326 7.06979 20.4796 6.99979C20.4486 6.96579 20.4236 6.92779 20.3896 6.89879C20.1546 6.62279 19.8776 6.37979 19.5336 6.22079L13.1336 3.24779C13.1326 3.24779 13.1316 3.24779 13.1316 3.24679C12.4126 2.91479 11.5876 2.91579 10.8666 3.24779L4.46957 6.21979C4.12557 6.37879 3.84757 6.62079 3.61257 6.89679C3.57557 6.92779 3.54857 6.96979 3.51557 7.00679C3.46357 7.07379 3.41057 7.13879 3.36657 7.21079C3.36157 7.21979 3.35357 7.22579 3.34957 7.23379C3.34557 7.24279 3.34657 7.25179 3.34257 7.26079C3.13157 7.62279 3.00057 8.02979 3.00057 8.45779V15.5248C2.99257 16.4748 3.56457 17.3588 4.45857 17.7768L10.8576 20.7488C11.2196 20.9178 11.6076 21.0018 11.9966 21.0018C12.3846 21.0018 12.7726 20.9178 13.1336 20.7498L19.5306 17.7778C20.4226 17.3658 20.9996 16.4878 21.0006 15.5398V8.45679C20.9996 8.02879 20.8686 7.62179 20.6566 7.25879Z" fill="white"/>
</mask>
<g mask="url(#mask0_214_5549)">
</g>
</svg>
