<svg width="24" height="24" viewBox="0 0 24 24" fill="none" xmlns="http://www.w3.org/2000/svg">
<path fill-rule="evenodd" clip-rule="evenodd" d="M11.9964 5.42876L15.8804 9.38776C17.2524 10.7848 17.7444 12.7398 17.3714 14.5428L18.9794 16.1518C20.0264 13.4188 19.4704 10.1908 17.3084 7.98776L12.7094 3.29976C12.5214 3.10876 12.2644 2.99976 11.9964 2.99976H11.9954C11.7264 2.99976 11.4694 3.10876 11.2814 3.30076L8.73136 5.90376L10.1454 7.31876L11.9964 5.42876ZM12.0022 19.0001H12.0002C10.5352 19.0001 9.15616 18.4181 8.11816 17.3601C6.22716 15.4341 5.99616 12.4451 7.42516 10.2541L5.99316 8.82206C3.80716 11.8041 4.03416 16.0551 6.69116 18.7611C8.10816 20.2051 9.99316 21.0001 12.0002 21.0001H12.0022C13.6822 20.9991 15.2722 20.4361 16.5782 19.4061L15.1472 17.9761C14.2302 18.6351 13.1452 18.9991 12.0022 19.0001ZM4.70676 3.29306L20.7068 19.2931C21.0978 19.6841 21.0978 20.3161 20.7068 20.7071C20.5118 20.9021 20.2558 21.0001 19.9998 21.0001C19.7438 21.0001 19.4878 20.9021 19.2928 20.7071L3.29276 4.70706C2.90176 4.31606 2.90176 3.68406 3.29276 3.29306C3.68376 2.90206 4.31576 2.90206 4.70676 3.29306Z" fill="#222B45"/>
<mask id="mask0_214_6483" style="mask-type:alpha" maskUnits="userSpaceOnUse" x="2" y="2" width="19" height="19">
<path fill-rule="evenodd" clip-rule="evenodd" d="M11.9964 5.42876L15.8804 9.38776C17.2524 10.7848 17.7444 12.7398 17.3714 14.5428L18.9794 16.1518C20.0264 13.4188 19.4704 10.1908 17.3084 7.98776L12.7094 3.29976C12.5214 3.10876 12.2644 2.99976 11.9964 2.99976H11.9954C11.7264 2.99976 11.4694 3.10876 11.2814 3.30076L8.73136 5.90376L10.1454 7.31876L11.9964 5.42876ZM12.0022 19.0001H12.0002C10.5352 19.0001 9.15616 18.4181 8.11816 17.3601C6.22716 15.4341 5.99616 12.4451 7.42516 10.2541L5.99316 8.82206C3.80716 11.8041 4.03416 16.0551 6.69116 18.7611C8.10816 20.2051 9.99316 21.0001 12.0002 21.0001H12.0022C13.6822 20.9991 15.2722 20.4361 16.5782 19.4061L15.1472 17.9761C14.2302 18.6351 13.1452 18.9991 12.0022 19.0001ZM4.70676 3.29306L20.7068 19.2931C21.0978 19.6841 21.0978 20.3161 20.7068 20.7071C20.5118 20.9021 20.2558 21.0001 19.9998 21.0001C19.7438 21.0001 19.4878 20.9021 19.2928 20.7071L3.29276 4.70706C2.90176 4.31606 2.90176 3.68406 3.29276 3.29306C3.68376 2.90206 4.31576 2.90206 4.70676 3.29306Z" fill="white"/>
</mask>
<g mask="url(#mask0_214_6483)">
</g>
</svg>
