<svg width="24" height="24" viewBox="0 0 24 24" fill="none" xmlns="http://www.w3.org/2000/svg">
<path fill-rule="evenodd" clip-rule="evenodd" d="M16.8885 18.3185C16.7165 17.8855 16.4725 17.5075 16.2585 17.1845C16.1505 17.0225 16.0395 16.8575 15.9425 16.6875C15.5535 16.0115 15.6875 15.7375 16.3185 14.6805L16.4205 14.5075C16.9315 13.6465 16.9595 12.8205 16.9855 12.0925C16.9975 11.7345 17.0095 11.3975 17.0785 11.0805C17.2395 10.3485 18.7865 10.1535 19.7455 10.0385C19.9065 10.6675 19.9995 11.3225 19.9995 12.0005C19.9995 14.5695 18.7775 16.8535 16.8885 18.3185ZM4.96151 15.7995C5.59751 15.9615 6.28651 16.0735 6.98751 16.0735C8.06751 16.0735 9.17051 15.8095 10.1245 15.0625C11.8405 13.7205 11.8405 12.0045 11.8405 10.6245C11.8405 9.73249 11.8405 8.96349 12.2125 8.28049C12.4125 7.91449 12.8385 7.66049 13.3315 7.36549C13.6335 7.18449 13.9465 6.99849 14.2465 6.76249C14.8895 6.25949 15.3675 5.61249 15.6635 4.89649C17.0635 5.62149 18.2235 6.74449 18.9895 8.11949C17.5615 8.31749 15.5345 8.78549 15.1255 10.6525C15.0175 11.1465 15.0005 11.6115 14.9875 12.0225C14.9665 12.6055 14.9505 13.0665 14.7005 13.4885L14.6005 13.6565C13.9535 14.7395 13.2215 15.9675 14.2085 17.6845C14.3275 17.8925 14.4605 18.0925 14.5915 18.2915C14.9355 18.8075 15.1045 19.0925 15.1055 19.3725C14.1505 19.7765 13.1005 20.0005 11.9995 20.0005C8.96251 20.0005 6.31651 18.2985 4.96151 15.7995ZM11.9995 4.00049C12.6155 4.00049 13.2105 4.07649 13.7865 4.20849C13.6175 4.58049 13.3565 4.91949 13.0125 5.18849C12.7945 5.36049 12.5495 5.50349 12.3065 5.64849C11.6555 6.03649 10.9185 6.47649 10.4565 7.32249C9.84051 8.45249 9.84051 9.60649 9.84051 10.6245C9.84051 11.9795 9.79651 12.7805 8.89251 13.4875C7.52351 14.5605 5.42851 13.9615 4.13251 13.4165C4.05051 12.9555 3.99951 12.4835 3.99951 12.0005C3.99951 7.58949 7.58851 4.00049 11.9995 4.00049ZM11.9995 2.00049C6.48551 2.00049 1.99951 6.48649 1.99951 12.0005C1.99951 17.5135 6.48551 22.0005 11.9995 22.0005C17.5135 22.0005 21.9995 17.5135 21.9995 12.0005C21.9995 6.48649 17.5135 2.00049 11.9995 2.00049Z" fill="#222B45"/>
<mask id="mask0_214_5700" style="mask-type:alpha" maskUnits="userSpaceOnUse" x="1" y="2" width="21" height="21">
<path fill-rule="evenodd" clip-rule="evenodd" d="M16.8885 18.3185C16.7165 17.8855 16.4725 17.5075 16.2585 17.1845C16.1505 17.0225 16.0395 16.8575 15.9425 16.6875C15.5535 16.0115 15.6875 15.7375 16.3185 14.6805L16.4205 14.5075C16.9315 13.6465 16.9595 12.8205 16.9855 12.0925C16.9975 11.7345 17.0095 11.3975 17.0785 11.0805C17.2395 10.3485 18.7865 10.1535 19.7455 10.0385C19.9065 10.6675 19.9995 11.3225 19.9995 12.0005C19.9995 14.5695 18.7775 16.8535 16.8885 18.3185ZM4.96151 15.7995C5.59751 15.9615 6.28651 16.0735 6.98751 16.0735C8.06751 16.0735 9.17051 15.8095 10.1245 15.0625C11.8405 13.7205 11.8405 12.0045 11.8405 10.6245C11.8405 9.73249 11.8405 8.96349 12.2125 8.28049C12.4125 7.91449 12.8385 7.66049 13.3315 7.36549C13.6335 7.18449 13.9465 6.99849 14.2465 6.76249C14.8895 6.25949 15.3675 5.61249 15.6635 4.89649C17.0635 5.62149 18.2235 6.74449 18.9895 8.11949C17.5615 8.31749 15.5345 8.78549 15.1255 10.6525C15.0175 11.1465 15.0005 11.6115 14.9875 12.0225C14.9665 12.6055 14.9505 13.0665 14.7005 13.4885L14.6005 13.6565C13.9535 14.7395 13.2215 15.9675 14.2085 17.6845C14.3275 17.8925 14.4605 18.0925 14.5915 18.2915C14.9355 18.8075 15.1045 19.0925 15.1055 19.3725C14.1505 19.7765 13.1005 20.0005 11.9995 20.0005C8.96251 20.0005 6.31651 18.2985 4.96151 15.7995ZM11.9995 4.00049C12.6155 4.00049 13.2105 4.07649 13.7865 4.20849C13.6175 4.58049 13.3565 4.91949 13.0125 5.18849C12.7945 5.36049 12.5495 5.50349 12.3065 5.64849C11.6555 6.03649 10.9185 6.47649 10.4565 7.32249C9.84051 8.45249 9.84051 9.60649 9.84051 10.6245C9.84051 11.9795 9.79651 12.7805 8.89251 13.4875C7.52351 14.5605 5.42851 13.9615 4.13251 13.4165C4.05051 12.9555 3.99951 12.4835 3.99951 12.0005C3.99951 7.58949 7.58851 4.00049 11.9995 4.00049ZM11.9995 2.00049C6.48551 2.00049 1.99951 6.48649 1.99951 12.0005C1.99951 17.5135 6.48551 22.0005 11.9995 22.0005C17.5135 22.0005 21.9995 17.5135 21.9995 12.0005C21.9995 6.48649 17.5135 2.00049 11.9995 2.00049Z" fill="white"/>
</mask>
<g mask="url(#mask0_214_5700)">
</g>
</svg>
