<svg width="24" height="24" viewBox="0 0 24 24" fill="none" xmlns="http://www.w3.org/2000/svg">
<path fill-rule="evenodd" clip-rule="evenodd" d="M9.698 13.9999L10.427 9.99994H14.302L13.573 13.9999H9.698ZM20 13.9999H15.698L16.427 9.99994H20C20.55 9.99994 21 9.54994 21 8.99994C21 8.44994 20.55 7.99994 20 7.99994H16.79L17.484 4.18894C17.584 3.64094 17.202 3.11194 16.635 3.01594C16.068 2.91894 15.523 3.28894 15.423 3.83794L14.665 7.99994H10.79L11.484 4.18894C11.584 3.64094 11.202 3.11194 10.635 3.01594C10.068 2.91894 9.523 3.28894 9.423 3.83794L8.665 7.99994H4C3.45 7.99994 3 8.44994 3 8.99994C3 9.54994 3.45 9.99994 4 9.99994H8.302L7.573 13.9999H4C3.45 13.9999 3 14.4499 3 14.9999C3 15.5499 3.45 15.9999 4 15.9999H7.209L6.515 19.8109C6.416 20.3589 6.798 20.8879 7.365 20.9839C7.931 21.0809 8.477 20.7109 8.576 20.1619L9.334 15.9999H13.209L12.515 19.8109C12.416 20.3589 12.798 20.8879 13.365 20.9839C13.931 21.0809 14.477 20.7109 14.576 20.1619L15.334 15.9999H20C20.55 15.9999 21 15.5499 21 14.9999C21 14.4499 20.55 13.9999 20 13.9999Z" fill="#222B45"/>
<mask id="mask0_214_7138" style="mask-type:alpha" maskUnits="userSpaceOnUse" x="3" y="3" width="18" height="18">
<path fill-rule="evenodd" clip-rule="evenodd" d="M9.698 13.9999L10.427 9.99994H14.302L13.573 13.9999H9.698ZM20 13.9999H15.698L16.427 9.99994H20C20.55 9.99994 21 9.54994 21 8.99994C21 8.44994 20.55 7.99994 20 7.99994H16.79L17.484 4.18894C17.584 3.64094 17.202 3.11194 16.635 3.01594C16.068 2.91894 15.523 3.28894 15.423 3.83794L14.665 7.99994H10.79L11.484 4.18894C11.584 3.64094 11.202 3.11194 10.635 3.01594C10.068 2.91894 9.523 3.28894 9.423 3.83794L8.665 7.99994H4C3.45 7.99994 3 8.44994 3 8.99994C3 9.54994 3.45 9.99994 4 9.99994H8.302L7.573 13.9999H4C3.45 13.9999 3 14.4499 3 14.9999C3 15.5499 3.45 15.9999 4 15.9999H7.209L6.515 19.8109C6.416 20.3589 6.798 20.8879 7.365 20.9839C7.931 21.0809 8.477 20.7109 8.576 20.1619L9.334 15.9999H13.209L12.515 19.8109C12.416 20.3589 12.798 20.8879 13.365 20.9839C13.931 21.0809 14.477 20.7109 14.576 20.1619L15.334 15.9999H20C20.55 15.9999 21 15.5499 21 14.9999C21 14.4499 20.55 13.9999 20 13.9999Z" fill="white"/>
</mask>
<g mask="url(#mask0_214_7138)">
</g>
</svg>
