<svg width="24" height="24" viewBox="0 0 24 24" fill="none" xmlns="http://www.w3.org/2000/svg">
<path fill-rule="evenodd" clip-rule="evenodd" d="M17.7603 15.5398L12.0003 18.8468L6.24033 15.5398L7.93433 14.8188L11.5023 16.8668C11.6563 16.9558 11.8283 16.9998 12.0003 16.9998C12.1723 16.9998 12.3433 16.9558 12.4983 16.8668L16.0663 14.8178L17.7603 15.5398ZM11.5023 12.8668C11.6563 12.9558 11.8283 12.9998 12.0003 12.9998C12.1723 12.9998 12.3433 12.9558 12.4983 12.8668L16.0663 10.8178L17.7603 11.5398L12.0003 14.8468L6.24033 11.5398L7.93433 10.8178L11.5023 12.8668ZM12.0003 5.08676L17.7603 7.53976L12.0003 10.8468L6.24033 7.53976L12.0003 5.08676ZM20.9983 11.3478C20.9753 10.9688 20.7403 10.6358 20.3913 10.4868L18.2393 9.57076L20.4983 8.27376C20.8273 8.08576 21.0203 7.72676 20.9983 7.34776C20.9753 6.96976 20.7403 6.63576 20.3913 6.48676L12.3913 3.07976C12.1413 2.97276 11.8583 2.97276 11.6083 3.07976L3.60833 6.48676C3.25933 6.63576 3.02433 6.96976 3.00233 7.34776C2.97933 7.72676 3.17333 8.08576 3.50233 8.27376L5.76033 9.57076L3.60833 10.4868C3.25933 10.6358 3.02433 10.9688 3.00233 11.3478C2.97933 11.7268 3.17333 12.0858 3.50233 12.2738L5.76033 13.5708L3.60833 14.4868C3.25933 14.6358 3.02433 14.9688 3.00233 15.3478C2.97933 15.7268 3.17333 16.0858 3.50233 16.2738L11.5023 20.8668C11.6563 20.9558 11.8283 20.9998 12.0003 20.9998C12.1723 20.9998 12.3433 20.9558 12.4983 20.8668L20.4983 16.2738C20.8273 16.0858 21.0203 15.7268 20.9983 15.3478C20.9753 14.9698 20.7403 14.6358 20.3923 14.4868L18.2403 13.5698L20.4983 12.2738C20.8273 12.0858 21.0203 11.7268 20.9983 11.3478Z" fill="#222B45"/>
<mask id="mask0_214_6658" style="mask-type:alpha" maskUnits="userSpaceOnUse" x="3" y="2" width="18" height="19">
<path fill-rule="evenodd" clip-rule="evenodd" d="M17.7603 15.5398L12.0003 18.8468L6.24033 15.5398L7.93433 14.8188L11.5023 16.8668C11.6563 16.9558 11.8283 16.9998 12.0003 16.9998C12.1723 16.9998 12.3433 16.9558 12.4983 16.8668L16.0663 14.8178L17.7603 15.5398ZM11.5023 12.8668C11.6563 12.9558 11.8283 12.9998 12.0003 12.9998C12.1723 12.9998 12.3433 12.9558 12.4983 12.8668L16.0663 10.8178L17.7603 11.5398L12.0003 14.8468L6.24033 11.5398L7.93433 10.8178L11.5023 12.8668ZM12.0003 5.08676L17.7603 7.53976L12.0003 10.8468L6.24033 7.53976L12.0003 5.08676ZM20.9983 11.3478C20.9753 10.9688 20.7403 10.6358 20.3913 10.4868L18.2393 9.57076L20.4983 8.27376C20.8273 8.08576 21.0203 7.72676 20.9983 7.34776C20.9753 6.96976 20.7403 6.63576 20.3913 6.48676L12.3913 3.07976C12.1413 2.97276 11.8583 2.97276 11.6083 3.07976L3.60833 6.48676C3.25933 6.63576 3.02433 6.96976 3.00233 7.34776C2.97933 7.72676 3.17333 8.08576 3.50233 8.27376L5.76033 9.57076L3.60833 10.4868C3.25933 10.6358 3.02433 10.9688 3.00233 11.3478C2.97933 11.7268 3.17333 12.0858 3.50233 12.2738L5.76033 13.5708L3.60833 14.4868C3.25933 14.6358 3.02433 14.9688 3.00233 15.3478C2.97933 15.7268 3.17333 16.0858 3.50233 16.2738L11.5023 20.8668C11.6563 20.9558 11.8283 20.9998 12.0003 20.9998C12.1723 20.9998 12.3433 20.9558 12.4983 20.8668L20.4983 16.2738C20.8273 16.0858 21.0203 15.7268 20.9983 15.3478C20.9753 14.9698 20.7403 14.6358 20.3923 14.4868L18.2403 13.5698L20.4983 12.2738C20.8273 12.0858 21.0203 11.7268 20.9983 11.3478Z" fill="white"/>
</mask>
<g mask="url(#mask0_214_6658)">
</g>
</svg>
