<svg width="24" height="24" viewBox="0 0 24 24" fill="none" xmlns="http://www.w3.org/2000/svg">
<path fill-rule="evenodd" clip-rule="evenodd" d="M19 17.4543L17 16.5563V6.54632L19 7.44432V17.4543ZM13 7.44432L15 6.54632V16.5563L13 17.4543V7.44432ZM9 6.54632L11 7.44432V17.4543L9 16.5563V6.54632ZM5 7.44432L7 6.54632V16.5563L5 17.4543V7.44432ZM20.41 5.88632L16.41 4.08832C16.395 4.08132 16.379 4.08032 16.364 4.07432C16.323 4.05832 16.282 4.04732 16.24 4.03632C16.201 4.02632 16.162 4.01732 16.122 4.01332C16.083 4.00832 16.044 4.00732 16.004 4.00732C15.96 4.00732 15.917 4.00832 15.873 4.01332C15.836 4.01732 15.801 4.02632 15.765 4.03532C15.721 4.04632 15.678 4.05832 15.635 4.07432C15.621 4.08032 15.604 4.08132 15.59 4.08832L12 5.70132L8.41 4.08832C8.395 4.08132 8.379 4.08032 8.364 4.07432C8.323 4.05832 8.282 4.04732 8.24 4.03632C8.201 4.02632 8.162 4.01732 8.122 4.01332C8.083 4.00832 8.044 4.00732 8.004 4.00732C7.96 4.00732 7.917 4.00832 7.873 4.01332C7.836 4.01732 7.801 4.02632 7.765 4.03532C7.721 4.04632 7.678 4.05832 7.635 4.07432C7.621 4.08032 7.604 4.08132 7.59 4.08832L3.59 5.88632C3.231 6.04732 3 6.40432 3 6.79832V19.0003C3 19.3393 3.172 19.6553 3.457 19.8403C3.621 19.9463 3.81 20.0003 4 20.0003C4.139 20.0003 4.279 19.9713 4.41 19.9123L8 18.2993L11.59 19.9123C11.605 19.9193 11.621 19.9163 11.637 19.9223C11.754 19.9693 11.875 20.0003 12 20.0003C12.125 20.0003 12.246 19.9693 12.363 19.9223C12.378 19.9163 12.396 19.9193 12.41 19.9123L16 18.2993L19.59 19.9123C19.721 19.9713 19.861 20.0003 20 20.0003C20.19 20.0003 20.379 19.9463 20.543 19.8403C20.828 19.6553 21 19.3393 21 19.0003V6.79832C21 6.40432 20.769 6.04732 20.41 5.88632Z" fill="#222B45"/>
<mask id="mask0_214_6429" style="mask-type:alpha" maskUnits="userSpaceOnUse" x="3" y="4" width="18" height="17">
<path fill-rule="evenodd" clip-rule="evenodd" d="M19 17.4543L17 16.5563V6.54632L19 7.44432V17.4543ZM13 7.44432L15 6.54632V16.5563L13 17.4543V7.44432ZM9 6.54632L11 7.44432V17.4543L9 16.5563V6.54632ZM5 7.44432L7 6.54632V16.5563L5 17.4543V7.44432ZM20.41 5.88632L16.41 4.08832C16.395 4.08132 16.379 4.08032 16.364 4.07432C16.323 4.05832 16.282 4.04732 16.24 4.03632C16.201 4.02632 16.162 4.01732 16.122 4.01332C16.083 4.00832 16.044 4.00732 16.004 4.00732C15.96 4.00732 15.917 4.00832 15.873 4.01332C15.836 4.01732 15.801 4.02632 15.765 4.03532C15.721 4.04632 15.678 4.05832 15.635 4.07432C15.621 4.08032 15.604 4.08132 15.59 4.08832L12 5.70132L8.41 4.08832C8.395 4.08132 8.379 4.08032 8.364 4.07432C8.323 4.05832 8.282 4.04732 8.24 4.03632C8.201 4.02632 8.162 4.01732 8.122 4.01332C8.083 4.00832 8.044 4.00732 8.004 4.00732C7.96 4.00732 7.917 4.00832 7.873 4.01332C7.836 4.01732 7.801 4.02632 7.765 4.03532C7.721 4.04632 7.678 4.05832 7.635 4.07432C7.621 4.08032 7.604 4.08132 7.59 4.08832L3.59 5.88632C3.231 6.04732 3 6.40432 3 6.79832V19.0003C3 19.3393 3.172 19.6553 3.457 19.8403C3.621 19.9463 3.81 20.0003 4 20.0003C4.139 20.0003 4.279 19.9713 4.41 19.9123L8 18.2993L11.59 19.9123C11.605 19.9193 11.621 19.9163 11.637 19.9223C11.754 19.9693 11.875 20.0003 12 20.0003C12.125 20.0003 12.246 19.9693 12.363 19.9223C12.378 19.9163 12.396 19.9193 12.41 19.9123L16 18.2993L19.59 19.9123C19.721 19.9713 19.861 20.0003 20 20.0003C20.19 20.0003 20.379 19.9463 20.543 19.8403C20.828 19.6553 21 19.3393 21 19.0003V6.79832C21 6.40432 20.769 6.04732 20.41 5.88632Z" fill="white"/>
</mask>
<g mask="url(#mask0_214_6429)">
</g>
</svg>
