<svg width="24" height="24" viewBox="0 0 24 24" fill="none" xmlns="http://www.w3.org/2000/svg">
<path fill-rule="evenodd" clip-rule="evenodd" d="M15.5079 17.0065C14.6849 17.0065 14.0159 16.3375 14.0159 15.5145C14.0159 14.6915 14.6849 14.0225 15.5079 14.0225C16.2289 14.0225 16.8299 14.5345 16.9699 15.2135V15.2145C16.9889 15.3115 16.9999 15.4115 16.9999 15.5145C16.9999 16.3375 16.3309 17.0065 15.5079 17.0065ZM6.53595 19.0005C5.71295 19.0005 5.04395 18.3305 5.04395 17.5075C5.04395 16.6855 5.71295 16.0155 6.53595 16.0155C7.25595 16.0155 7.85795 16.5275 7.99795 17.2065V17.2095C8.01795 17.3055 8.02894 17.4055 8.02894 17.5075C8.02894 18.3305 7.35995 19.0005 6.53595 19.0005ZM18.9469 14.9925V4.00046C18.9469 3.69646 18.8099 3.40946 18.5729 3.21946C18.3359 3.03046 18.0249 2.95846 17.7309 3.02446L8.75895 5.01746C8.30095 5.11946 7.97595 5.52546 7.97595 5.99346V14.3345C7.53495 14.1345 7.05095 14.0155 6.53595 14.0155C4.61095 14.0155 3.04395 15.5825 3.04395 17.5075C3.04395 19.4335 4.61095 21.0005 6.53595 21.0005C8.46195 21.0005 10.0289 19.4335 10.0289 17.5075C10.0289 17.3295 10.0019 17.1575 9.97595 16.9855V6.79646L16.9469 5.24646V12.3405C16.5069 12.1405 16.0229 12.0225 15.5079 12.0225C13.5819 12.0225 12.0159 13.5885 12.0159 15.5145C12.0159 17.4405 13.5819 19.0065 15.5079 19.0065C17.4339 19.0065 18.9999 17.4405 18.9999 15.5145C18.9999 15.3355 18.9739 15.1645 18.9469 14.9925Z" fill="#222B45"/>
<mask id="mask0_214_6272" style="mask-type:alpha" maskUnits="userSpaceOnUse" x="3" y="3" width="16" height="19">
<path fill-rule="evenodd" clip-rule="evenodd" d="M15.5079 17.0065C14.6849 17.0065 14.0159 16.3375 14.0159 15.5145C14.0159 14.6915 14.6849 14.0225 15.5079 14.0225C16.2289 14.0225 16.8299 14.5345 16.9699 15.2135V15.2145C16.9889 15.3115 16.9999 15.4115 16.9999 15.5145C16.9999 16.3375 16.3309 17.0065 15.5079 17.0065ZM6.53595 19.0005C5.71295 19.0005 5.04395 18.3305 5.04395 17.5075C5.04395 16.6855 5.71295 16.0155 6.53595 16.0155C7.25595 16.0155 7.85795 16.5275 7.99795 17.2065V17.2095C8.01795 17.3055 8.02894 17.4055 8.02894 17.5075C8.02894 18.3305 7.35995 19.0005 6.53595 19.0005ZM18.9469 14.9925V4.00046C18.9469 3.69646 18.8099 3.40946 18.5729 3.21946C18.3359 3.03046 18.0249 2.95846 17.7309 3.02446L8.75895 5.01746C8.30095 5.11946 7.97595 5.52546 7.97595 5.99346V14.3345C7.53495 14.1345 7.05095 14.0155 6.53595 14.0155C4.61095 14.0155 3.04395 15.5825 3.04395 17.5075C3.04395 19.4335 4.61095 21.0005 6.53595 21.0005C8.46195 21.0005 10.0289 19.4335 10.0289 17.5075C10.0289 17.3295 10.0019 17.1575 9.97595 16.9855V6.79646L16.9469 5.24646V12.3405C16.5069 12.1405 16.0229 12.0225 15.5079 12.0225C13.5819 12.0225 12.0159 13.5885 12.0159 15.5145C12.0159 17.4405 13.5819 19.0065 15.5079 19.0065C17.4339 19.0065 18.9999 17.4405 18.9999 15.5145C18.9999 15.3355 18.9739 15.1645 18.9469 14.9925Z" fill="white"/>
</mask>
<g mask="url(#mask0_214_6272)">
</g>
</svg>
