<svg width="24" height="24" viewBox="0 0 24 24" fill="none" xmlns="http://www.w3.org/2000/svg">
<path fill-rule="evenodd" clip-rule="evenodd" d="M19.7395 4.26051C19.3925 3.91251 18.8295 3.91251 18.4825 4.26051L4.26051 18.4825C4.08651 18.6565 3.99951 18.8835 3.99951 19.1115C3.99951 19.3385 4.08651 19.5665 4.26051 19.7395C4.60751 20.0865 5.16951 20.0865 5.51751 19.7395L19.7395 5.51751C20.0865 5.16951 20.0865 4.60751 19.7395 4.26051ZM15.9998 18.9998C15.1728 18.9998 14.4998 18.3268 14.4998 17.4998C14.4998 16.6728 15.1728 15.9998 15.9998 15.9998C16.8268 15.9998 17.4998 16.6728 17.4998 17.4998C17.4998 18.3268 16.8268 18.9998 15.9998 18.9998ZM15.9998 13.9998C14.0698 13.9998 12.4998 15.5698 12.4998 17.4998C12.4998 19.4298 14.0698 20.9998 15.9998 20.9998C17.9298 20.9998 19.4998 19.4298 19.4998 17.4998C19.4998 15.5698 17.9298 13.9998 15.9998 13.9998ZM7.99981 5.99981C8.82681 5.99981 9.49981 6.67281 9.49981 7.49981C9.49981 8.32681 8.82681 8.99981 7.99981 8.99981C7.17281 8.99981 6.49981 8.32681 6.49981 7.49981C6.49981 6.67281 7.17281 5.99981 7.99981 5.99981ZM7.99981 10.9998C9.92981 10.9998 11.4998 9.42981 11.4998 7.49981C11.4998 5.56981 9.92981 3.99981 7.99981 3.99981C6.06981 3.99981 4.49981 5.56981 4.49981 7.49981C4.49981 9.42981 6.06981 10.9998 7.99981 10.9998Z" fill="#222B45"/>
<mask id="mask0_214_6683" style="mask-type:alpha" maskUnits="userSpaceOnUse" x="3" y="3" width="17" height="18">
<path fill-rule="evenodd" clip-rule="evenodd" d="M19.7395 4.26051C19.3925 3.91251 18.8295 3.91251 18.4825 4.26051L4.26051 18.4825C4.08651 18.6565 3.99951 18.8835 3.99951 19.1115C3.99951 19.3385 4.08651 19.5665 4.26051 19.7395C4.60751 20.0865 5.16951 20.0865 5.51751 19.7395L19.7395 5.51751C20.0865 5.16951 20.0865 4.60751 19.7395 4.26051ZM15.9998 18.9998C15.1728 18.9998 14.4998 18.3268 14.4998 17.4998C14.4998 16.6728 15.1728 15.9998 15.9998 15.9998C16.8268 15.9998 17.4998 16.6728 17.4998 17.4998C17.4998 18.3268 16.8268 18.9998 15.9998 18.9998ZM15.9998 13.9998C14.0698 13.9998 12.4998 15.5698 12.4998 17.4998C12.4998 19.4298 14.0698 20.9998 15.9998 20.9998C17.9298 20.9998 19.4998 19.4298 19.4998 17.4998C19.4998 15.5698 17.9298 13.9998 15.9998 13.9998ZM7.99981 5.99981C8.82681 5.99981 9.49981 6.67281 9.49981 7.49981C9.49981 8.32681 8.82681 8.99981 7.99981 8.99981C7.17281 8.99981 6.49981 8.32681 6.49981 7.49981C6.49981 6.67281 7.17281 5.99981 7.99981 5.99981ZM7.99981 10.9998C9.92981 10.9998 11.4998 9.42981 11.4998 7.49981C11.4998 5.56981 9.92981 3.99981 7.99981 3.99981C6.06981 3.99981 4.49981 5.56981 4.49981 7.49981C4.49981 9.42981 6.06981 10.9998 7.99981 10.9998Z" fill="white"/>
</mask>
<g mask="url(#mask0_214_6683)">
</g>
</svg>
