<svg width="24" height="24" viewBox="0 0 24 24" fill="none" xmlns="http://www.w3.org/2000/svg">
<path fill-rule="evenodd" clip-rule="evenodd" d="M10.5607 8.43938C11.1467 9.02438 11.1467 9.97538 10.5607 10.5604C9.97467 11.1464 9.02567 11.1464 8.43967 10.5604C7.85367 9.97538 7.85367 9.02438 8.43967 8.43938C9.02567 7.85338 9.97467 7.85338 10.5607 8.43938ZM5.83417 12.8915L11.8662 18.9245L18.9242 11.8665L12.8922 5.83348L5.10717 5.10748L5.83417 12.8915ZM11.8662 20.9985C11.4012 20.9985 10.9372 20.8215 10.5822 20.4685L4.16517 14.0505C4.00017 13.8865 3.89817 13.6685 3.87617 13.4365L3.00417 4.09248C2.97717 3.79648 3.08217 3.50348 3.29317 3.29248C3.50417 3.08148 3.79617 2.97448 4.09317 3.00448L13.4372 3.87648C13.6692 3.89748 13.8862 3.99948 14.0512 4.16448L20.4682 10.5815C20.8112 10.9245 21.0002 11.3805 21.0002 11.8665C21.0002 12.3525 20.8112 12.8085 20.4682 13.1515L13.1512 20.4675C12.7972 20.8215 12.3322 20.9985 11.8662 20.9985Z" fill="#222B45"/>
<mask id="mask0_214_6411" style="mask-type:alpha" maskUnits="userSpaceOnUse" x="3" y="2" width="18" height="19">
<path fill-rule="evenodd" clip-rule="evenodd" d="M10.5607 8.43938C11.1467 9.02438 11.1467 9.97538 10.5607 10.5604C9.97467 11.1464 9.02567 11.1464 8.43967 10.5604C7.85367 9.97538 7.85367 9.02438 8.43967 8.43938C9.02567 7.85338 9.97467 7.85338 10.5607 8.43938ZM5.83417 12.8915L11.8662 18.9245L18.9242 11.8665L12.8922 5.83348L5.10717 5.10748L5.83417 12.8915ZM11.8662 20.9985C11.4012 20.9985 10.9372 20.8215 10.5822 20.4685L4.16517 14.0505C4.00017 13.8865 3.89817 13.6685 3.87617 13.4365L3.00417 4.09248C2.97717 3.79648 3.08217 3.50348 3.29317 3.29248C3.50417 3.08148 3.79617 2.97448 4.09317 3.00448L13.4372 3.87648C13.6692 3.89748 13.8862 3.99948 14.0512 4.16448L20.4682 10.5815C20.8112 10.9245 21.0002 11.3805 21.0002 11.8665C21.0002 12.3525 20.8112 12.8085 20.4682 13.1515L13.1512 20.4675C12.7972 20.8215 12.3322 20.9985 11.8662 20.9985Z" fill="white"/>
</mask>
<g mask="url(#mask0_214_6411)">
</g>
</svg>
