<svg width="24" height="24" viewBox="0 0 24 24" fill="none" xmlns="http://www.w3.org/2000/svg">
<path fill-rule="evenodd" clip-rule="evenodd" d="M5.91425 4.99976H17.9102C19.8892 4.99976 21.5002 6.58276 21.5002 8.52876V10.9998C21.5002 11.5528 21.0532 11.9998 20.5002 11.9998C19.9473 11.9998 19.5002 11.5528 19.5002 10.9998V8.52876C19.5002 7.68676 18.7873 6.99976 17.9102 6.99976H5.91425L7.20725 8.29276C7.59725 8.68376 7.59725 9.31576 7.20725 9.70676C7.01225 9.90176 6.75625 9.99976 6.50025 9.99976C6.24425 9.99976 5.98825 9.90176 5.79325 9.70676L2.79325 6.70676C2.40225 6.31576 2.40225 5.68376 2.79325 5.29276L5.79325 2.29276C6.18325 1.90176 6.81625 1.90176 7.20725 2.29276C7.59725 2.68376 7.59725 3.31576 7.20725 3.70676L5.91425 4.99976ZM16.793 14.2928C17.1841 13.9018 17.816 13.9018 18.207 14.2928L21.2071 17.2928C21.5981 17.6838 21.5981 18.3158 21.2071 18.7068L18.207 21.7068C18.012 21.9018 17.7561 21.9998 17.5 21.9998C17.2441 21.9998 16.9881 21.9018 16.793 21.7068C16.4021 21.3158 16.4021 20.6838 16.793 20.2928L18.0861 18.9998H6.09005C4.11005 18.9998 2.50005 17.4168 2.50005 15.4708V12.9998C2.50005 12.4468 2.94805 11.9998 3.50005 11.9998C4.05205 11.9998 4.50005 12.4468 4.50005 12.9998V15.4708C4.50005 16.3138 5.21305 16.9998 6.09005 16.9998H18.0861L16.793 15.7068C16.4021 15.3158 16.4021 14.6838 16.793 14.2928Z" fill="#222B45"/>
<mask id="mask0_214_6812" style="mask-type:alpha" maskUnits="userSpaceOnUse" x="2" y="1" width="20" height="21">
<path fill-rule="evenodd" clip-rule="evenodd" d="M5.91425 4.99976H17.9102C19.8892 4.99976 21.5002 6.58276 21.5002 8.52876V10.9998C21.5002 11.5528 21.0532 11.9998 20.5002 11.9998C19.9473 11.9998 19.5002 11.5528 19.5002 10.9998V8.52876C19.5002 7.68676 18.7873 6.99976 17.9102 6.99976H5.91425L7.20725 8.29276C7.59725 8.68376 7.59725 9.31576 7.20725 9.70676C7.01225 9.90176 6.75625 9.99976 6.50025 9.99976C6.24425 9.99976 5.98825 9.90176 5.79325 9.70676L2.79325 6.70676C2.40225 6.31576 2.40225 5.68376 2.79325 5.29276L5.79325 2.29276C6.18325 1.90176 6.81625 1.90176 7.20725 2.29276C7.59725 2.68376 7.59725 3.31576 7.20725 3.70676L5.91425 4.99976ZM16.793 14.2928C17.1841 13.9018 17.816 13.9018 18.207 14.2928L21.2071 17.2928C21.5981 17.6838 21.5981 18.3158 21.2071 18.7068L18.207 21.7068C18.012 21.9018 17.7561 21.9998 17.5 21.9998C17.2441 21.9998 16.9881 21.9018 16.793 21.7068C16.4021 21.3158 16.4021 20.6838 16.793 20.2928L18.0861 18.9998H6.09005C4.11005 18.9998 2.50005 17.4168 2.50005 15.4708V12.9998C2.50005 12.4468 2.94805 11.9998 3.50005 11.9998C4.05205 11.9998 4.50005 12.4468 4.50005 12.9998V15.4708C4.50005 16.3138 5.21305 16.9998 6.09005 16.9998H18.0861L16.793 15.7068C16.4021 15.3158 16.4021 14.6838 16.793 14.2928Z" fill="white"/>
</mask>
<g mask="url(#mask0_214_6812)">
</g>
</svg>
