<svg width="24" height="24" viewBox="0 0 24 24" fill="none" xmlns="http://www.w3.org/2000/svg">
<path fill-rule="evenodd" clip-rule="evenodd" d="M17.5 15.9855L12.678 12.0025L17.5 8.09146V15.9855ZM9.5 15.9855L4.678 12.0025L9.5 8.09146V15.9855ZM18.45 6.20146C17.716 5.85646 16.849 5.95846 16.241 6.46146L11.5 10.3775V7.78746C11.5 7.11446 11.098 6.50646 10.45 6.20146C9.716 5.85646 8.849 5.95846 8.241 6.46146L3.141 10.6735C2.734 11.0095 2.5 11.4945 2.5 12.0005C2.5 12.5065 2.734 12.9905 3.142 13.3265L8.241 17.5405C8.609 17.8435 9.073 18.0015 9.544 18.0015C9.851 18.0015 10.161 17.9345 10.45 17.7985C11.098 17.4935 11.5 16.8855 11.5 16.2135V13.6225L16.241 17.5405C16.609 17.8435 17.073 18.0015 17.544 18.0015C17.851 18.0015 18.161 17.9345 18.45 17.7985C19.098 17.4935 19.5 16.8855 19.5 16.2135V7.78746C19.5 7.11446 19.098 6.50646 18.45 6.20146Z" fill="#222B45"/>
<mask id="mask0_214_5529" style="mask-type:alpha" maskUnits="userSpaceOnUse" x="2" y="5" width="18" height="14">
<path fill-rule="evenodd" clip-rule="evenodd" d="M17.5 15.9855L12.678 12.0025L17.5 8.09146V15.9855ZM9.5 15.9855L4.678 12.0025L9.5 8.09146V15.9855ZM18.45 6.20146C17.716 5.85646 16.849 5.95846 16.241 6.46146L11.5 10.3775V7.78746C11.5 7.11446 11.098 6.50646 10.45 6.20146C9.716 5.85646 8.849 5.95846 8.241 6.46146L3.141 10.6735C2.734 11.0095 2.5 11.4945 2.5 12.0005C2.5 12.5065 2.734 12.9905 3.142 13.3265L8.241 17.5405C8.609 17.8435 9.073 18.0015 9.544 18.0015C9.851 18.0015 10.161 17.9345 10.45 17.7985C11.098 17.4935 11.5 16.8855 11.5 16.2135V13.6225L16.241 17.5405C16.609 17.8435 17.073 18.0015 17.544 18.0015C17.851 18.0015 18.161 17.9345 18.45 17.7985C19.098 17.4935 19.5 16.8855 19.5 16.2135V7.78746C19.5 7.11446 19.098 6.50646 18.45 6.20146Z" fill="white"/>
</mask>
<g mask="url(#mask0_214_5529)">
</g>
</svg>
