<svg width="24" height="24" viewBox="0 0 24 24" fill="none" xmlns="http://www.w3.org/2000/svg">
<path fill-rule="evenodd" clip-rule="evenodd" d="M14.5 15.908V8.01403L19.322 11.998L14.5 15.908ZM6.5 15.908V8.01403L11.322 11.998L6.5 15.908ZM20.858 10.674L15.759 6.46003C15.15 5.95803 14.282 5.85603 13.55 6.20103C12.902 6.50703 12.5 7.11403 12.5 7.78703V10.378L7.759 6.46003C7.15 5.95803 6.281 5.85603 5.55 6.20103C4.902 6.50703 4.5 7.11403 4.5 7.78703V16.213C4.5 16.886 4.902 17.493 5.55 17.799C5.839 17.934 6.149 18.001 6.456 18.001C6.927 18.001 7.391 17.844 7.759 17.539L12.5 13.623V16.213C12.5 16.886 12.902 17.493 13.55 17.799C13.839 17.934 14.149 18.001 14.456 18.001C14.927 18.001 15.391 17.844 15.759 17.539L20.859 13.326C21.266 12.99 21.5 12.506 21.5 12C21.5 11.494 21.266 11.01 20.858 10.674Z" fill="#222B45"/>
<mask id="mask0_214_5671" style="mask-type:alpha" maskUnits="userSpaceOnUse" x="4" y="5" width="18" height="14">
<path fill-rule="evenodd" clip-rule="evenodd" d="M14.5 15.908V8.01403L19.322 11.998L14.5 15.908ZM6.5 15.908V8.01403L11.322 11.998L6.5 15.908ZM20.858 10.674L15.759 6.46003C15.15 5.95803 14.282 5.85603 13.55 6.20103C12.902 6.50703 12.5 7.11403 12.5 7.78703V10.378L7.759 6.46003C7.15 5.95803 6.281 5.85603 5.55 6.20103C4.902 6.50703 4.5 7.11403 4.5 7.78703V16.213C4.5 16.886 4.902 17.493 5.55 17.799C5.839 17.934 6.149 18.001 6.456 18.001C6.927 18.001 7.391 17.844 7.759 17.539L12.5 13.623V16.213C12.5 16.886 12.902 17.493 13.55 17.799C13.839 17.934 14.149 18.001 14.456 18.001C14.927 18.001 15.391 17.844 15.759 17.539L20.859 13.326C21.266 12.99 21.5 12.506 21.5 12C21.5 11.494 21.266 11.01 20.858 10.674Z" fill="white"/>
</mask>
<g mask="url(#mask0_214_5671)">
</g>
</svg>
