<svg width="24" height="24" viewBox="0 0 24 24" fill="none" xmlns="http://www.w3.org/2000/svg">
<path fill-rule="evenodd" clip-rule="evenodd" d="M18.6268 16.9513L12.6268 21.7793C12.2558 22.0783 11.7258 22.0733 11.3588 21.7683L5.35882 16.7683C5.12182 16.5703 4.99982 16.2863 4.99982 15.9993C4.99982 15.7733 5.07582 15.5473 5.23082 15.3593C5.58482 14.9353 6.21582 14.8783 6.64082 15.2313L12.0108 19.7083L17.3728 15.3923C17.8038 15.0473 18.4328 15.1143 18.7788 15.5453C19.1268 15.9753 19.0568 16.6043 18.6268 16.9513ZM18.6404 7.23155C19.0644 7.58455 19.1214 8.21355 18.7684 8.64055C18.4144 9.06455 17.7844 9.12155 17.3594 8.76855L11.9894 4.29155L6.62642 8.60755C6.19642 8.95255 5.56742 8.88555 5.22042 8.45455C5.07242 8.27055 4.99942 8.04855 4.99942 7.82855C4.99942 7.53655 5.12742 7.24655 5.37242 7.04855L11.3724 2.22055C11.7444 1.92155 12.2744 1.92655 12.6404 2.23155L18.6404 7.23155Z" fill="#222B45"/>
<mask id="mask0_508_8645" style="mask-type:alpha" maskUnits="userSpaceOnUse" x="4" y="1" width="16" height="22">
<path fill-rule="evenodd" clip-rule="evenodd" d="M18.6268 16.9513L12.6268 21.7793C12.2558 22.0783 11.7258 22.0733 11.3588 21.7683L5.35882 16.7683C5.12182 16.5703 4.99982 16.2863 4.99982 15.9993C4.99982 15.7733 5.07582 15.5473 5.23082 15.3593C5.58482 14.9353 6.21582 14.8783 6.64082 15.2313L12.0108 19.7083L17.3728 15.3923C17.8038 15.0473 18.4328 15.1143 18.7788 15.5453C19.1268 15.9753 19.0568 16.6043 18.6268 16.9513ZM18.6404 7.23155C19.0644 7.58455 19.1214 8.21355 18.7684 8.64055C18.4144 9.06455 17.7844 9.12155 17.3594 8.76855L11.9894 4.29155L6.62642 8.60755C6.19642 8.95255 5.56742 8.88555 5.22042 8.45455C5.07242 8.27055 4.99942 8.04855 4.99942 7.82855C4.99942 7.53655 5.12742 7.24655 5.37242 7.04855L11.3724 2.22055C11.7444 1.92155 12.2744 1.92655 12.6404 2.23155L18.6404 7.23155Z" fill="white"/>
</mask>
<g mask="url(#mask0_508_8645)">
</g>
</svg>
