<svg width="24" height="24" viewBox="0 0 24 24" fill="none" xmlns="http://www.w3.org/2000/svg">
<path fill-rule="evenodd" clip-rule="evenodd" d="M13 7.14224C12.679 7.05924 12.347 7.00024 12 7.00024C11.653 7.00024 11.321 7.05924 11 7.14224V3.00024C11 2.44724 11.448 2.00024 12 2.00024C12.552 2.00024 13 2.44724 13 3.00024V7.14224ZM5.49951 18.0002C5.27151 18.0002 5.04351 17.9232 4.85551 17.7652C2.69151 15.9432 1.49951 13.5412 1.49951 11.0002C1.49951 8.45924 2.69151 6.05724 4.85551 4.23524C5.27751 3.87824 5.90851 3.93324 6.26551 4.35624C6.62051 4.77824 6.56651 5.40924 6.14451 5.76524C4.43851 7.20024 3.49951 9.06024 3.49951 11.0002C3.49951 12.9402 4.43851 14.8002 6.14451 16.2352C6.56651 16.5912 6.62051 17.2222 6.26551 17.6442C6.06751 17.8792 5.78451 18.0002 5.49951 18.0002ZM12 12.0002C11.449 12.0002 11 11.5522 11 11.0002C11 10.4482 11.449 10.0002 12 10.0002C12.551 10.0002 13 10.4482 13 11.0002C13 11.5522 12.551 12.0002 12 12.0002ZM12 15.0002C11.653 15.0002 11.321 14.9412 11 14.8582V20.0002C11 20.5532 11.448 21.0002 12 21.0002C12.552 21.0002 13 20.5532 13 20.0002V14.8582C12.679 14.9412 12.347 15.0002 12 15.0002ZM15.2345 15.6452C15.4335 15.8792 15.7155 16.0002 16.0005 16.0002C16.2285 16.0002 16.4565 15.9232 16.6445 15.7652C18.1635 14.4852 19.0005 12.7932 19.0005 11.0002C19.0005 9.20724 18.1635 7.51524 16.6445 6.23524C16.2225 5.87924 15.5905 5.93424 15.2345 6.35524C14.8795 6.77824 14.9335 7.40924 15.3555 7.76524C16.4165 8.65724 17.0005 9.80724 17.0005 11.0002C17.0005 12.1932 16.4165 13.3432 15.3555 14.2352C14.9335 14.5912 14.8795 15.2222 15.2345 15.6452ZM7.99951 16.0002C7.77151 16.0002 7.54351 15.9232 7.35551 15.7652C5.83651 14.4852 4.99951 12.7932 4.99951 11.0002C4.99951 9.20724 5.83651 7.51524 7.35551 6.23524C7.77751 5.87924 8.40851 5.93324 8.76551 6.35524C9.12051 6.77824 9.06651 7.40924 8.64451 7.76524C7.58351 8.65724 6.99951 9.80724 6.99951 11.0002C6.99951 12.1932 7.58351 13.3432 8.64451 14.2352C9.06651 14.5912 9.12051 15.2222 8.76551 15.6452C8.56751 15.8792 8.28451 16.0002 7.99951 16.0002ZM17.7345 17.6442C17.9325 17.8792 18.2155 18.0002 18.5005 18.0002C18.7285 18.0002 18.9565 17.9232 19.1445 17.7652C21.3085 15.9432 22.5005 13.5412 22.5005 11.0002C22.5005 8.45924 21.3085 6.05724 19.1445 4.23524C18.7215 3.87924 18.0905 3.93324 17.7345 4.35624C17.3795 4.77824 17.4335 5.40924 17.8555 5.76524C19.5615 7.20024 20.5005 9.06024 20.5005 11.0002C20.5005 12.9402 19.5615 14.8002 17.8555 16.2352C17.4335 16.5912 17.3795 17.2222 17.7345 17.6442Z" fill="#222B45"/>
<mask id="mask0_214_6862" style="mask-type:alpha" maskUnits="userSpaceOnUse" x="1" y="2" width="22" height="20">
<path fill-rule="evenodd" clip-rule="evenodd" d="M13 7.14224C12.679 7.05924 12.347 7.00024 12 7.00024C11.653 7.00024 11.321 7.05924 11 7.14224V3.00024C11 2.44724 11.448 2.00024 12 2.00024C12.552 2.00024 13 2.44724 13 3.00024V7.14224ZM5.49951 18.0002C5.27151 18.0002 5.04351 17.9232 4.85551 17.7652C2.69151 15.9432 1.49951 13.5412 1.49951 11.0002C1.49951 8.45924 2.69151 6.05724 4.85551 4.23524C5.27751 3.87824 5.90851 3.93324 6.26551 4.35624C6.62051 4.77824 6.56651 5.40924 6.14451 5.76524C4.43851 7.20024 3.49951 9.06024 3.49951 11.0002C3.49951 12.9402 4.43851 14.8002 6.14451 16.2352C6.56651 16.5912 6.62051 17.2222 6.26551 17.6442C6.06751 17.8792 5.78451 18.0002 5.49951 18.0002ZM12 12.0002C11.449 12.0002 11 11.5522 11 11.0002C11 10.4482 11.449 10.0002 12 10.0002C12.551 10.0002 13 10.4482 13 11.0002C13 11.5522 12.551 12.0002 12 12.0002ZM12 15.0002C11.653 15.0002 11.321 14.9412 11 14.8582V20.0002C11 20.5532 11.448 21.0002 12 21.0002C12.552 21.0002 13 20.5532 13 20.0002V14.8582C12.679 14.9412 12.347 15.0002 12 15.0002ZM15.2345 15.6452C15.4335 15.8792 15.7155 16.0002 16.0005 16.0002C16.2285 16.0002 16.4565 15.9232 16.6445 15.7652C18.1635 14.4852 19.0005 12.7932 19.0005 11.0002C19.0005 9.20724 18.1635 7.51524 16.6445 6.23524C16.2225 5.87924 15.5905 5.93424 15.2345 6.35524C14.8795 6.77824 14.9335 7.40924 15.3555 7.76524C16.4165 8.65724 17.0005 9.80724 17.0005 11.0002C17.0005 12.1932 16.4165 13.3432 15.3555 14.2352C14.9335 14.5912 14.8795 15.2222 15.2345 15.6452ZM7.99951 16.0002C7.77151 16.0002 7.54351 15.9232 7.35551 15.7652C5.83651 14.4852 4.99951 12.7932 4.99951 11.0002C4.99951 9.20724 5.83651 7.51524 7.35551 6.23524C7.77751 5.87924 8.40851 5.93324 8.76551 6.35524C9.12051 6.77824 9.06651 7.40924 8.64451 7.76524C7.58351 8.65724 6.99951 9.80724 6.99951 11.0002C6.99951 12.1932 7.58351 13.3432 8.64451 14.2352C9.06651 14.5912 9.12051 15.2222 8.76551 15.6452C8.56751 15.8792 8.28451 16.0002 7.99951 16.0002ZM17.7345 17.6442C17.9325 17.8792 18.2155 18.0002 18.5005 18.0002C18.7285 18.0002 18.9565 17.9232 19.1445 17.7652C21.3085 15.9432 22.5005 13.5412 22.5005 11.0002C22.5005 8.45924 21.3085 6.05724 19.1445 4.23524C18.7215 3.87924 18.0905 3.93324 17.7345 4.35624C17.3795 4.77824 17.4335 5.40924 17.8555 5.76524C19.5615 7.20024 20.5005 9.06024 20.5005 11.0002C20.5005 12.9402 19.5615 14.8002 17.8555 16.2352C17.4335 16.5912 17.3795 17.2222 17.7345 17.6442Z" fill="white"/>
</mask>
<g mask="url(#mask0_214_6862)">
</g>
</svg>
