<svg width="24" height="24" viewBox="0 0 24 24" fill="none" xmlns="http://www.w3.org/2000/svg">
<path fill-rule="evenodd" clip-rule="evenodd" d="M12 4.14643L5 8.08443V8.22943C5 12.9694 7.566 17.3584 11.698 19.6834L12 19.8534L12.302 19.6834C16.434 17.3584 19 12.9694 19 8.22943V8.08443L12 4.14643ZM12 21.8504C11.661 21.8504 11.322 21.7664 11.021 21.5964L10.718 21.4254C5.957 18.7484 3 13.6914 3 8.22943V8.08443C3 7.36543 3.39 6.69743 4.018 6.34243L11.02 2.40443C11.625 2.06443 12.376 2.06343 12.979 2.40343L19.98 6.34143C20.61 6.69743 21 7.36543 21 8.08443V8.22943C21 13.6914 18.043 18.7484 13.282 21.4254L12.98 21.5954C12.678 21.7654 12.339 21.8504 12 21.8504Z" fill="#222B45"/>
<mask id="mask0_214_5515" style="mask-type:alpha" maskUnits="userSpaceOnUse" x="3" y="2" width="18" height="20">
<path fill-rule="evenodd" clip-rule="evenodd" d="M12 4.14643L5 8.08443V8.22943C5 12.9694 7.566 17.3584 11.698 19.6834L12 19.8534L12.302 19.6834C16.434 17.3584 19 12.9694 19 8.22943V8.08443L12 4.14643ZM12 21.8504C11.661 21.8504 11.322 21.7664 11.021 21.5964L10.718 21.4254C5.957 18.7484 3 13.6914 3 8.22943V8.08443C3 7.36543 3.39 6.69743 4.018 6.34243L11.02 2.40443C11.625 2.06443 12.376 2.06343 12.979 2.40343L19.98 6.34143C20.61 6.69743 21 7.36543 21 8.08443V8.22943C21 13.6914 18.043 18.7484 13.282 21.4254L12.98 21.5954C12.678 21.7654 12.339 21.8504 12 21.8504Z" fill="white"/>
</mask>
<g mask="url(#mask0_214_5515)">
</g>
</svg>
