<svg width="24" height="24" viewBox="0 0 24 24" fill="none" xmlns="http://www.w3.org/2000/svg">
<path fill-rule="evenodd" clip-rule="evenodd" d="M12.9793 2.40404L19.9803 6.34204C20.6103 6.69704 21.0003 7.36504 21.0003 8.08504V8.23004C21.0003 11.017 20.2253 13.696 18.8383 16.011L17.3733 14.544C18.4183 12.639 19.0003 10.475 19.0003 8.23004V8.08504L12.0003 4.14704L8.78426 5.95604L7.31526 4.48804L11.0193 2.40404C11.6253 2.06504 12.3763 2.06404 12.9793 2.40404ZM4.70676 3.29324C4.31576 2.90224 3.68376 2.90224 3.29276 3.29324C2.90176 3.68424 2.90176 4.31624 3.29276 4.70724L19.2928 20.7072C19.4878 20.9022 19.7438 21.0002 19.9998 21.0002C20.2558 21.0002 20.5118 20.9022 20.7068 20.7072C21.0978 20.3162 21.0978 19.6842 20.7068 19.2932L4.70676 3.29324ZM12.3016 19.6838L11.9996 19.8538L11.6976 19.6838C7.56656 17.3588 4.99956 12.9698 4.99956 8.22984V8.08484L5.16356 7.99284L3.73156 6.55984C3.28056 6.93584 2.99956 7.48684 2.99956 8.08484V8.22984C2.99956 13.6918 5.95656 18.7478 10.7176 21.4258L11.0206 21.5968C11.3226 21.7668 11.6606 21.8508 11.9996 21.8508C12.3386 21.8508 12.6776 21.7658 12.9806 21.5958L13.2816 21.4258C14.4046 20.7948 15.4216 20.0278 16.3286 19.1578L14.9146 17.7438C14.1356 18.4868 13.2626 19.1428 12.3016 19.6838Z" fill="#222B45"/>
<mask id="mask0_214_5642" style="mask-type:alpha" maskUnits="userSpaceOnUse" x="2" y="2" width="20" height="20">
<path fill-rule="evenodd" clip-rule="evenodd" d="M12.9793 2.40404L19.9803 6.34204C20.6103 6.69704 21.0003 7.36504 21.0003 8.08504V8.23004C21.0003 11.017 20.2253 13.696 18.8383 16.011L17.3733 14.544C18.4183 12.639 19.0003 10.475 19.0003 8.23004V8.08504L12.0003 4.14704L8.78426 5.95604L7.31526 4.48804L11.0193 2.40404C11.6253 2.06504 12.3763 2.06404 12.9793 2.40404ZM4.70676 3.29324C4.31576 2.90224 3.68376 2.90224 3.29276 3.29324C2.90176 3.68424 2.90176 4.31624 3.29276 4.70724L19.2928 20.7072C19.4878 20.9022 19.7438 21.0002 19.9998 21.0002C20.2558 21.0002 20.5118 20.9022 20.7068 20.7072C21.0978 20.3162 21.0978 19.6842 20.7068 19.2932L4.70676 3.29324ZM12.3016 19.6838L11.9996 19.8538L11.6976 19.6838C7.56656 17.3588 4.99956 12.9698 4.99956 8.22984V8.08484L5.16356 7.99284L3.73156 6.55984C3.28056 6.93584 2.99956 7.48684 2.99956 8.08484V8.22984C2.99956 13.6918 5.95656 18.7478 10.7176 21.4258L11.0206 21.5968C11.3226 21.7668 11.6606 21.8508 11.9996 21.8508C12.3386 21.8508 12.6776 21.7658 12.9806 21.5958L13.2816 21.4258C14.4046 20.7948 15.4216 20.0278 16.3286 19.1578L14.9146 17.7438C14.1356 18.4868 13.2626 19.1428 12.3016 19.6838Z" fill="white"/>
</mask>
<g mask="url(#mask0_214_5642)">
</g>
</svg>
