<svg width="24" height="24" viewBox="0 0 24 24" fill="none" xmlns="http://www.w3.org/2000/svg">
<path fill-rule="evenodd" clip-rule="evenodd" d="M18.9998 10.308C18.4478 10.308 17.9998 9.86 17.9998 9.308L17.9988 7.415L5.70676 19.707C5.51176 19.902 5.25576 20 4.99976 20C4.74376 20 4.48776 19.902 4.29276 19.707C3.90176 19.316 3.90176 18.683 4.29276 18.293L10.5798 12.006L4.74776 6.175C4.35676 5.784 4.35676 5.151 4.74776 4.761C5.13876 4.37 5.77076 4.37 6.16176 4.761L11.9938 10.592L16.5758 6.009L14.6868 6C14.1348 5.997 13.6888 5.547 13.6918 4.995C13.6948 4.443 14.1688 4.01 14.6968 4L19.0018 4.021C19.5518 4.024 19.9968 4.471 19.9968 5.021L19.9998 9.307C19.9998 9.859 19.5528 10.307 19.0008 10.308H18.9998ZM18.9997 13.6791H19.0047C19.5577 13.6821 20.0027 14.1321 19.9997 14.6841L19.9787 18.8921C20.0107 19.1831 19.9307 19.4841 19.7067 19.7071C19.5117 19.9021 19.2557 20.0001 18.9997 20.0001C18.9844 20.0001 18.9695 19.996 18.9546 19.9918C18.943 19.9886 18.9314 19.9854 18.9197 19.9841L14.6927 19.9871C14.1407 19.9871 13.6927 19.5391 13.6927 18.9871C13.6927 18.4351 14.1397 17.9871 14.6917 17.9871L16.5707 17.9861L13.7927 15.2071C13.4017 14.8161 13.4017 14.1831 13.7927 13.7931C14.1837 13.4021 14.8167 13.4021 15.2067 13.7931L17.9897 16.5761L17.9997 14.6741C18.0027 14.1231 18.4497 13.6791 18.9997 13.6791Z" fill="#222B45"/>
<mask id="mask0_214_6624" style="mask-type:alpha" maskUnits="userSpaceOnUse" x="3" y="4" width="17" height="16">
<path fill-rule="evenodd" clip-rule="evenodd" d="M18.9998 10.308C18.4478 10.308 17.9998 9.86 17.9998 9.308L17.9988 7.415L5.70676 19.707C5.51176 19.902 5.25576 20 4.99976 20C4.74376 20 4.48776 19.902 4.29276 19.707C3.90176 19.316 3.90176 18.683 4.29276 18.293L10.5798 12.006L4.74776 6.175C4.35676 5.784 4.35676 5.151 4.74776 4.761C5.13876 4.37 5.77076 4.37 6.16176 4.761L11.9938 10.592L16.5758 6.009L14.6868 6C14.1348 5.997 13.6888 5.547 13.6918 4.995C13.6948 4.443 14.1688 4.01 14.6968 4L19.0018 4.021C19.5518 4.024 19.9968 4.471 19.9968 5.021L19.9998 9.307C19.9998 9.859 19.5528 10.307 19.0008 10.308H18.9998ZM18.9997 13.6791H19.0047C19.5577 13.6821 20.0027 14.1321 19.9997 14.6841L19.9787 18.8921C20.0107 19.1831 19.9307 19.4841 19.7067 19.7071C19.5117 19.9021 19.2557 20.0001 18.9997 20.0001C18.9844 20.0001 18.9695 19.996 18.9546 19.9918C18.943 19.9886 18.9314 19.9854 18.9197 19.9841L14.6927 19.9871C14.1407 19.9871 13.6927 19.5391 13.6927 18.9871C13.6927 18.4351 14.1397 17.9871 14.6917 17.9871L16.5707 17.9861L13.7927 15.2071C13.4017 14.8161 13.4017 14.1831 13.7927 13.7931C14.1837 13.4021 14.8167 13.4021 15.2067 13.7931L17.9897 16.5761L17.9997 14.6741C18.0027 14.1231 18.4497 13.6791 18.9997 13.6791Z" fill="white"/>
</mask>
<g mask="url(#mask0_214_6624)">
</g>
</svg>
