<svg width="24" height="24" viewBox="0 0 24 24" fill="none" xmlns="http://www.w3.org/2000/svg">
<path fill-rule="evenodd" clip-rule="evenodd" d="M18.709 14.2946C18.319 13.9026 17.685 13.9006 17.295 14.2916C16.903 14.6816 16.901 15.3146 17.291 15.7056L17.584 16.0006H16C13.794 16.0006 12 14.2056 12 12.0006C12 9.79464 13.794 8.00064 16 8.00064H17.588L17.295 8.29164C16.903 8.68164 16.901 9.31464 17.291 9.70564C17.486 9.90164 17.743 10.0006 18 10.0006C18.255 10.0006 18.511 9.90264 18.705 9.70864L20.705 7.71764C20.894 7.53064 20.999 7.27664 21 7.01164C21.001 6.74564 20.896 6.49164 20.709 6.30364L18.709 4.29464C18.319 3.90264 17.685 3.90064 17.295 4.29164C16.903 4.68164 16.901 5.31464 17.291 5.70564L17.584 6.00064H16C13.914 6.00064 12.075 7.07064 11 8.69064C9.925 7.07064 8.086 6.00064 6 6.00064H4C3.447 6.00064 3 6.44764 3 7.00064C3 7.55264 3.447 8.00064 4 8.00064H6C8.206 8.00064 10 9.79464 10 12.0006C10 14.2056 8.206 16.0006 6 16.0006H4C3.447 16.0006 3 16.4476 3 17.0006C3 17.5526 3.447 18.0006 4 18.0006H6C8.086 18.0006 9.925 16.9296 11 15.3096C12.075 16.9296 13.914 18.0006 16 18.0006H17.588L17.295 18.2916C16.903 18.6816 16.901 19.3146 17.291 19.7056C17.486 19.9016 17.743 20.0006 18 20.0006C18.255 20.0006 18.511 19.9026 18.705 19.7086L20.705 17.7176C20.894 17.5306 20.999 17.2766 21 17.0116C21.001 16.7456 20.896 16.4916 20.709 16.3036L18.709 14.2946Z" fill="#222B45"/>
<mask id="mask0_214_6761" style="mask-type:alpha" maskUnits="userSpaceOnUse" x="3" y="3" width="18" height="18">
<path fill-rule="evenodd" clip-rule="evenodd" d="M18.709 14.2946C18.319 13.9026 17.685 13.9006 17.295 14.2916C16.903 14.6816 16.901 15.3146 17.291 15.7056L17.584 16.0006H16C13.794 16.0006 12 14.2056 12 12.0006C12 9.79464 13.794 8.00064 16 8.00064H17.588L17.295 8.29164C16.903 8.68164 16.901 9.31464 17.291 9.70564C17.486 9.90164 17.743 10.0006 18 10.0006C18.255 10.0006 18.511 9.90264 18.705 9.70864L20.705 7.71764C20.894 7.53064 20.999 7.27664 21 7.01164C21.001 6.74564 20.896 6.49164 20.709 6.30364L18.709 4.29464C18.319 3.90264 17.685 3.90064 17.295 4.29164C16.903 4.68164 16.901 5.31464 17.291 5.70564L17.584 6.00064H16C13.914 6.00064 12.075 7.07064 11 8.69064C9.925 7.07064 8.086 6.00064 6 6.00064H4C3.447 6.00064 3 6.44764 3 7.00064C3 7.55264 3.447 8.00064 4 8.00064H6C8.206 8.00064 10 9.79464 10 12.0006C10 14.2056 8.206 16.0006 6 16.0006H4C3.447 16.0006 3 16.4476 3 17.0006C3 17.5526 3.447 18.0006 4 18.0006H6C8.086 18.0006 9.925 16.9296 11 15.3096C12.075 16.9296 13.914 18.0006 16 18.0006H17.588L17.295 18.2916C16.903 18.6816 16.901 19.3146 17.291 19.7056C17.486 19.9016 17.743 20.0006 18 20.0006C18.255 20.0006 18.511 19.9026 18.705 19.7086L20.705 17.7176C20.894 17.5306 20.999 17.2766 21 17.0116C21.001 16.7456 20.896 16.4916 20.709 16.3036L18.709 14.2946Z" fill="white"/>
</mask>
<g mask="url(#mask0_214_6761)">
</g>
</svg>
