<svg width="24" height="24" viewBox="0 0 24 24" fill="none" xmlns="http://www.w3.org/2000/svg">
<path fill-rule="evenodd" clip-rule="evenodd" d="M8.5 15.908V8.01403L13.322 11.998L8.5 15.908ZM16 6.00003C15.448 6.00003 15 6.44703 15 7.00003V10.818C14.953 10.769 14.912 10.718 14.858 10.674L9.759 6.46003C9.15 5.95803 8.282 5.85603 7.55 6.20103C6.902 6.50703 6.5 7.11403 6.5 7.78703V16.213C6.5 16.886 6.902 17.493 7.55 17.799C7.839 17.934 8.149 18.001 8.456 18.001C8.927 18.001 9.391 17.844 9.759 17.539L14.859 13.326C14.912 13.282 14.953 13.23 15 13.181V17C15 17.553 15.448 18 16 18C16.552 18 17 17.553 17 17V7.00003C17 6.44703 16.552 6.00003 16 6.00003Z" fill="#222B45"/>
<mask id="mask0_214_6465" style="mask-type:alpha" maskUnits="userSpaceOnUse" x="6" y="5" width="11" height="14">
<path fill-rule="evenodd" clip-rule="evenodd" d="M8.5 15.908V8.01403L13.322 11.998L8.5 15.908ZM16 6.00003C15.448 6.00003 15 6.44703 15 7.00003V10.818C14.953 10.769 14.912 10.718 14.858 10.674L9.759 6.46003C9.15 5.95803 8.282 5.85603 7.55 6.20103C6.902 6.50703 6.5 7.11403 6.5 7.78703V16.213C6.5 16.886 6.902 17.493 7.55 17.799C7.839 17.934 8.149 18.001 8.456 18.001C8.927 18.001 9.391 17.844 9.759 17.539L14.859 13.326C14.912 13.282 14.953 13.23 15 13.181V17C15 17.553 15.448 18 16 18C16.552 18 17 17.553 17 17V7.00003C17 6.44703 16.552 6.00003 16 6.00003Z" fill="white"/>
</mask>
<g mask="url(#mask0_214_6465)">
</g>
</svg>
