<svg width="24" height="24" viewBox="0 0 24 24" fill="none" xmlns="http://www.w3.org/2000/svg">
<path fill-rule="evenodd" clip-rule="evenodd" d="M19 18.9998C19 19.5518 18.552 19.9998 18 19.9998H6C5.448 19.9998 5 19.5518 5 18.9998V8.99976C5 8.44776 5.448 7.99976 6 7.99976H18C18.552 7.99976 19 8.44776 19 8.99976V18.9998ZM18 5.99976H14.414L16.707 3.70676C17.098 3.31576 17.098 2.68376 16.707 2.29276C16.316 1.90176 15.684 1.90176 15.293 2.29276L12 5.58576L8.707 2.29276C8.316 1.90176 7.684 1.90176 7.293 2.29276C6.902 2.68376 6.902 3.31576 7.293 3.70676L9.586 5.99976H6C4.346 5.99976 3 7.34576 3 8.99976V18.9998C3 20.6538 4.346 21.9998 6 21.9998H18C19.654 21.9998 21 20.6538 21 18.9998V8.99976C21 7.34576 19.654 5.99976 18 5.99976Z" fill="#222B45"/>
<mask id="mask0_214_7280" style="mask-type:alpha" maskUnits="userSpaceOnUse" x="3" y="1" width="18" height="21">
<path fill-rule="evenodd" clip-rule="evenodd" d="M19 18.9998C19 19.5518 18.552 19.9998 18 19.9998H6C5.448 19.9998 5 19.5518 5 18.9998V8.99976C5 8.44776 5.448 7.99976 6 7.99976H18C18.552 7.99976 19 8.44776 19 8.99976V18.9998ZM18 5.99976H14.414L16.707 3.70676C17.098 3.31576 17.098 2.68376 16.707 2.29276C16.316 1.90176 15.684 1.90176 15.293 2.29276L12 5.58576L8.707 2.29276C8.316 1.90176 7.684 1.90176 7.293 2.29276C6.902 2.68376 6.902 3.31576 7.293 3.70676L9.586 5.99976H6C4.346 5.99976 3 7.34576 3 8.99976V18.9998C3 20.6538 4.346 21.9998 6 21.9998H18C19.654 21.9998 21 20.6538 21 18.9998V8.99976C21 7.34576 19.654 5.99976 18 5.99976Z" fill="white"/>
</mask>
<g mask="url(#mask0_214_7280)">
</g>
</svg>
