<svg width="24" height="24" viewBox="0 0 24 24" fill="none" xmlns="http://www.w3.org/2000/svg">
<path fill-rule="evenodd" clip-rule="evenodd" d="M11.9994 4C15.6474 4 19.1004 5.395 21.7244 7.929C22.1214 8.312 22.1324 8.946 21.7494 9.343C21.5534 9.546 21.2914 9.648 21.0304 9.648C20.7804 9.648 20.5294 9.555 20.3354 9.367C18.0854 7.196 15.1254 6 11.9994 6C8.87338 6 5.91338 7.196 3.66338 9.367C3.26838 9.752 2.63438 9.741 2.24938 9.343C1.86738 8.946 1.87738 8.312 2.27538 7.929C4.89938 5.395 8.35238 4 11.9994 4ZM11.9998 8.9998C9.57178 8.9998 7.21178 10.0008 5.52478 11.7478C5.14278 12.1458 5.15278 12.7788 5.55078 13.1618C5.94678 13.5458 6.58178 13.5348 6.96478 13.1378C8.27578 11.7788 10.1108 10.9998 11.9998 10.9998C13.8888 10.9998 15.7238 11.7788 17.0348 13.1378C17.2308 13.3408 17.4928 13.4428 17.7548 13.4428C18.0048 13.4428 18.2558 13.3498 18.4488 13.1618C18.8468 12.7788 18.8568 12.1458 18.4748 11.7478C16.7878 10.0008 14.4278 8.9998 11.9998 8.9998ZM8.52678 15.4028C9.46378 14.4988 10.6968 13.9998 11.9998 13.9998C13.3028 13.9998 14.5358 14.4988 15.4728 15.4028C15.8698 15.7868 15.8808 16.4198 15.4978 16.8168C15.3018 17.0208 15.0398 17.1228 14.7778 17.1228C14.5278 17.1228 14.2768 17.0288 14.0838 16.8418C12.9588 15.7558 11.0408 15.7558 9.91578 16.8418C9.52078 17.2258 8.88678 17.2148 8.50178 16.8168C8.11878 16.4198 8.12978 15.7868 8.52678 15.4028ZM10.9998 18.9998C10.9998 18.4478 11.4468 17.9998 11.9998 17.9998C12.5528 17.9998 12.9998 18.4478 12.9998 18.9998C12.9998 19.5518 12.5528 19.9998 11.9998 19.9998C11.4468 19.9998 10.9998 19.5518 10.9998 18.9998Z" fill="#222B45"/>
<mask id="mask0_214_6505" style="mask-type:alpha" maskUnits="userSpaceOnUse" x="1" y="4" width="22" height="16">
<path fill-rule="evenodd" clip-rule="evenodd" d="M11.9994 4C15.6474 4 19.1004 5.395 21.7244 7.929C22.1214 8.312 22.1324 8.946 21.7494 9.343C21.5534 9.546 21.2914 9.648 21.0304 9.648C20.7804 9.648 20.5294 9.555 20.3354 9.367C18.0854 7.196 15.1254 6 11.9994 6C8.87338 6 5.91338 7.196 3.66338 9.367C3.26838 9.752 2.63438 9.741 2.24938 9.343C1.86738 8.946 1.87738 8.312 2.27538 7.929C4.89938 5.395 8.35238 4 11.9994 4ZM11.9998 8.9998C9.57178 8.9998 7.21178 10.0008 5.52478 11.7478C5.14278 12.1458 5.15278 12.7788 5.55078 13.1618C5.94678 13.5458 6.58178 13.5348 6.96478 13.1378C8.27578 11.7788 10.1108 10.9998 11.9998 10.9998C13.8888 10.9998 15.7238 11.7788 17.0348 13.1378C17.2308 13.3408 17.4928 13.4428 17.7548 13.4428C18.0048 13.4428 18.2558 13.3498 18.4488 13.1618C18.8468 12.7788 18.8568 12.1458 18.4748 11.7478C16.7878 10.0008 14.4278 8.9998 11.9998 8.9998ZM8.52678 15.4028C9.46378 14.4988 10.6968 13.9998 11.9998 13.9998C13.3028 13.9998 14.5358 14.4988 15.4728 15.4028C15.8698 15.7868 15.8808 16.4198 15.4978 16.8168C15.3018 17.0208 15.0398 17.1228 14.7778 17.1228C14.5278 17.1228 14.2768 17.0288 14.0838 16.8418C12.9588 15.7558 11.0408 15.7558 9.91578 16.8418C9.52078 17.2258 8.88678 17.2148 8.50178 16.8168C8.11878 16.4198 8.12978 15.7868 8.52678 15.4028ZM10.9998 18.9998C10.9998 18.4478 11.4468 17.9998 11.9998 17.9998C12.5528 17.9998 12.9998 18.4478 12.9998 18.9998C12.9998 19.5518 12.5528 19.9998 11.9998 19.9998C11.4468 19.9998 10.9998 19.5518 10.9998 18.9998Z" fill="white"/>
</mask>
<g mask="url(#mask0_214_6505)">
</g>
</svg>
