<svg width="24" height="24" viewBox="0 0 24 24" fill="none" xmlns="http://www.w3.org/2000/svg">
<path fill-rule="evenodd" clip-rule="evenodd" d="M12.4367 11.0227L10.5447 9.13074L8.08267 6.66774L6.53167 5.11774L4.70767 3.29374C4.31667 2.90274 3.68367 2.90274 3.29267 3.29374C2.90267 3.68374 2.90267 4.31674 3.29267 4.70774L4.66867 6.08374L6.12967 7.54374L8.36367 9.77774L9.90967 11.3237L12.6487 14.0627L15.4417 16.8557L19.2927 20.7077C19.4887 20.9027 19.7447 21.0007 19.9997 21.0007C20.2557 21.0007 20.5117 20.9027 20.7077 20.7077C21.0977 20.3167 21.0977 19.6837 20.7077 19.2937L12.4367 11.0227ZM12.0002 18.0002C11.4472 18.0002 11.0002 18.4482 11.0002 19.0002C11.0002 19.5522 11.4472 20.0002 12.0002 20.0002C12.5532 20.0002 13.0002 19.5522 13.0002 19.0002C13.0002 18.4482 12.5532 18.0002 12.0002 18.0002ZM11.9998 4.00044C15.6478 4.00044 19.1008 5.39544 21.7248 7.92944C22.1218 8.31244 22.1328 8.94644 21.7498 9.34344C21.5538 9.54644 21.2918 9.64844 21.0308 9.64844C20.7808 9.64844 20.5298 9.55544 20.3358 9.36744C18.0858 7.19644 15.1258 6.00044 11.9998 6.00044C11.0368 6.00044 10.0918 6.12744 9.17577 6.34744L7.56077 4.73244C8.97677 4.26044 10.4688 4.00044 11.9998 4.00044ZM3.82437 6.65304C3.28537 7.04304 2.76237 7.46004 2.27537 7.92904C1.87837 8.31304 1.86737 8.94604 2.25037 9.34304C2.63437 9.74104 3.26937 9.75204 3.66437 9.36804C4.16037 8.88904 4.69637 8.46604 5.25637 8.08404L3.82437 6.65304ZM17.7554 13.4429C17.4934 13.4429 17.2314 13.3409 17.0354 13.1379C16.2434 12.3169 15.2584 11.7119 14.1864 11.3589L11.8374 9.00894C11.8624 9.00847 11.8875 9.0065 11.9127 9.00452C11.9417 9.00223 11.9709 8.99994 12.0004 8.99994C14.4284 8.99994 16.7884 10.0019 18.4744 11.7479C18.8574 12.1459 18.8474 12.7789 18.4494 13.1619C18.2564 13.3499 18.0054 13.4429 17.7554 13.4429ZM7.43177 10.2605C6.73777 10.6685 6.09077 11.1625 5.52577 11.7485C5.14277 12.1455 5.15377 12.7795 5.55077 13.1625C5.94677 13.5465 6.58077 13.5355 6.96477 13.1375C7.52677 12.5555 8.18877 12.0885 8.90577 11.7345L7.43177 10.2605ZM8.50247 16.8175C8.11947 16.4205 8.13047 15.7875 8.52747 15.4035C9.27947 14.6765 10.2265 14.2275 11.2445 14.0725L13.7615 16.5905C12.6195 15.7755 10.9415 15.8525 9.91647 16.8415C9.52047 17.2265 8.88647 17.2155 8.50247 16.8175Z" fill="#222B45"/>
<mask id="mask0_214_6607" style="mask-type:alpha" maskUnits="userSpaceOnUse" x="1" y="3" width="22" height="19">
<path fill-rule="evenodd" clip-rule="evenodd" d="M12.4367 11.0227L10.5447 9.13074L8.08267 6.66774L6.53167 5.11774L4.70767 3.29374C4.31667 2.90274 3.68367 2.90274 3.29267 3.29374C2.90267 3.68374 2.90267 4.31674 3.29267 4.70774L4.66867 6.08374L6.12967 7.54374L8.36367 9.77774L9.90967 11.3237L12.6487 14.0627L15.4417 16.8557L19.2927 20.7077C19.4887 20.9027 19.7447 21.0007 19.9997 21.0007C20.2557 21.0007 20.5117 20.9027 20.7077 20.7077C21.0977 20.3167 21.0977 19.6837 20.7077 19.2937L12.4367 11.0227ZM12.0002 18.0002C11.4472 18.0002 11.0002 18.4482 11.0002 19.0002C11.0002 19.5522 11.4472 20.0002 12.0002 20.0002C12.5532 20.0002 13.0002 19.5522 13.0002 19.0002C13.0002 18.4482 12.5532 18.0002 12.0002 18.0002ZM11.9998 4.00044C15.6478 4.00044 19.1008 5.39544 21.7248 7.92944C22.1218 8.31244 22.1328 8.94644 21.7498 9.34344C21.5538 9.54644 21.2918 9.64844 21.0308 9.64844C20.7808 9.64844 20.5298 9.55544 20.3358 9.36744C18.0858 7.19644 15.1258 6.00044 11.9998 6.00044C11.0368 6.00044 10.0918 6.12744 9.17577 6.34744L7.56077 4.73244C8.97677 4.26044 10.4688 4.00044 11.9998 4.00044ZM3.82437 6.65304C3.28537 7.04304 2.76237 7.46004 2.27537 7.92904C1.87837 8.31304 1.86737 8.94604 2.25037 9.34304C2.63437 9.74104 3.26937 9.75204 3.66437 9.36804C4.16037 8.88904 4.69637 8.46604 5.25637 8.08404L3.82437 6.65304ZM17.7554 13.4429C17.4934 13.4429 17.2314 13.3409 17.0354 13.1379C16.2434 12.3169 15.2584 11.7119 14.1864 11.3589L11.8374 9.00894C11.8624 9.00847 11.8875 9.0065 11.9127 9.00452C11.9417 9.00223 11.9709 8.99994 12.0004 8.99994C14.4284 8.99994 16.7884 10.0019 18.4744 11.7479C18.8574 12.1459 18.8474 12.7789 18.4494 13.1619C18.2564 13.3499 18.0054 13.4429 17.7554 13.4429ZM7.43177 10.2605C6.73777 10.6685 6.09077 11.1625 5.52577 11.7485C5.14277 12.1455 5.15377 12.7795 5.55077 13.1625C5.94677 13.5465 6.58077 13.5355 6.96477 13.1375C7.52677 12.5555 8.18877 12.0885 8.90577 11.7345L7.43177 10.2605ZM8.50247 16.8175C8.11947 16.4205 8.13047 15.7875 8.52747 15.4035C9.27947 14.6765 10.2265 14.2275 11.2445 14.0725L13.7615 16.5905C12.6195 15.7755 10.9415 15.8525 9.91647 16.8415C9.52047 17.2265 8.88647 17.2155 8.50247 16.8175Z" fill="white"/>
</mask>
<g mask="url(#mask0_214_6607)">
</g>
</svg>
