<svg width="24" height="24" viewBox="0 0 24 24" fill="none" xmlns="http://www.w3.org/2000/svg">
<path fill-rule="evenodd" clip-rule="evenodd" d="M9.00015 16H7.21015C5.10415 16 3.20415 14.465 3.01715 12.366C2.80415 9.996 4.67315 8 7.00015 8H9.00015C9.55215 8 10.0002 7.553 10.0002 7C10.0002 6.447 9.55215 6 9.00015 6H7.20915C4.16015 6 1.43915 8.187 1.05115 11.211C0.582151 14.869 3.43215 18 7.00015 18H9.00015C9.55215 18 10.0002 17.553 10.0002 17C10.0002 16.447 9.55215 16 9.00015 16ZM8.00015 12C8.00015 12.553 8.44815 13 9.00015 13H15.0002C15.5522 13 16.0002 12.553 16.0002 12C16.0002 11.447 15.5522 11 15.0002 11H9.00015C8.44815 11 8.00015 11.447 8.00015 12ZM16.7593 6.0002C19.8263 6.0002 22.5783 8.1972 22.9533 11.2422C23.4023 14.8882 20.5583 18.0002 17.0003 18.0002H15.0003C14.4483 18.0002 14.0003 17.5532 14.0003 17.0002C14.0003 16.4472 14.4483 16.0002 15.0003 16.0002H17.0003C19.3273 16.0002 21.1963 14.0042 20.9832 11.6342C20.7963 9.5352 18.8963 8.0002 16.7893 8.0002H15.0003C14.4483 8.0002 14.0003 7.5532 14.0003 7.0002C14.0003 6.4472 14.4433 6.0002 15.2493 6.0002H16.7593Z" fill="#222B45"/>
<mask id="mask0_214_6944" style="mask-type:alpha" maskUnits="userSpaceOnUse" x="1" y="6" width="22" height="12">
<path fill-rule="evenodd" clip-rule="evenodd" d="M9.00015 16H7.21015C5.10415 16 3.20415 14.465 3.01715 12.366C2.80415 9.996 4.67315 8 7.00015 8H9.00015C9.55215 8 10.0002 7.553 10.0002 7C10.0002 6.447 9.55215 6 9.00015 6H7.20915C4.16015 6 1.43915 8.187 1.05115 11.211C0.582151 14.869 3.43215 18 7.00015 18H9.00015C9.55215 18 10.0002 17.553 10.0002 17C10.0002 16.447 9.55215 16 9.00015 16ZM8.00015 12C8.00015 12.553 8.44815 13 9.00015 13H15.0002C15.5522 13 16.0002 12.553 16.0002 12C16.0002 11.447 15.5522 11 15.0002 11H9.00015C8.44815 11 8.00015 11.447 8.00015 12ZM16.7593 6.0002C19.8263 6.0002 22.5783 8.1972 22.9533 11.2422C23.4023 14.8882 20.5583 18.0002 17.0003 18.0002H15.0003C14.4483 18.0002 14.0003 17.5532 14.0003 17.0002C14.0003 16.4472 14.4483 16.0002 15.0003 16.0002H17.0003C19.3273 16.0002 21.1963 14.0042 20.9832 11.6342C20.7963 9.5352 18.8963 8.0002 16.7893 8.0002H15.0003C14.4483 8.0002 14.0003 7.5532 14.0003 7.0002C14.0003 6.4472 14.4433 6.0002 15.2493 6.0002H16.7593Z" fill="white"/>
</mask>
<g mask="url(#mask0_214_6944)">
</g>
</svg>
