<svg width="24" height="24" viewBox="0 0 24 24" fill="none" xmlns="http://www.w3.org/2000/svg">
<path fill-rule="evenodd" clip-rule="evenodd" d="M16.2404 22.0001C15.6884 22.0001 15.2404 21.5531 15.2404 21.0001V18.4011C15.2874 17.7381 15.0884 17.1611 14.6974 16.7421C14.4384 16.4661 14.3584 16.0681 14.4884 15.7141C14.6184 15.3591 14.9364 15.1081 15.3124 15.0651C17.7464 14.7831 20.0004 13.9471 20.0004 9.77411C20.0004 8.97411 19.7684 8.20311 19.3294 7.54711C18.9284 6.94911 18.7824 6.22011 18.9164 5.49411C19.0044 5.02111 18.9994 4.54011 18.9044 4.07511C18.5004 4.19511 17.8084 4.48011 16.8114 5.17411C16.5664 5.34411 16.2554 5.39511 15.9694 5.31511C14.1654 4.80811 12.2584 4.80811 10.4534 5.31511C10.1664 5.39511 9.85741 5.34411 9.61241 5.17411C8.62541 4.48711 7.93741 4.20111 7.51741 4.08311C7.42341 4.54411 7.41941 5.02111 7.50641 5.49111C7.63941 6.21311 7.48841 6.95011 7.08041 7.56811C6.64641 8.22711 6.41941 8.99711 6.42341 9.79711C6.42341 13.6911 8.30241 14.7301 11.1234 15.0931C11.4954 15.1411 11.8094 15.3931 11.9374 15.7461C12.0644 16.0991 11.9834 16.4931 11.7274 16.7671C11.3404 17.1821 11.1414 17.7531 11.1804 18.3341L11.1814 19.1221C11.1834 19.1621 11.1834 19.2021 11.1814 19.2421L11.1824 21.0001C11.1824 21.5531 10.7354 22.0001 10.1824 22.0001C9.63041 22.0001 9.18241 21.5531 9.18241 21.0001V20.4291C6.49741 20.7791 4.96741 19.3401 3.90641 18.3401C3.46641 17.9271 3.05241 17.5361 2.74941 17.4571C2.21441 17.3181 1.89341 16.7721 2.03241 16.2381C2.17141 15.7041 2.71741 15.3781 3.25141 15.5211C4.05041 15.7291 4.64641 16.2901 5.27741 16.8841C6.29941 17.8471 7.26941 18.7591 9.18241 18.4041V18.4011C9.14541 17.8721 9.22441 17.3301 9.40741 16.8171C7.35341 16.3051 4.42341 14.8121 4.42341 9.80211C4.41741 8.61011 4.75941 7.45611 5.41041 6.46711C5.53241 6.28211 5.57841 6.06511 5.53941 5.85411C5.33941 4.77111 5.45441 3.65911 5.87441 2.64311C5.98841 2.36711 6.21941 2.15611 6.50441 2.06811C6.83541 1.96611 8.05541 1.77111 10.3664 3.27111C12.2374 2.82211 14.1864 2.82211 16.0564 3.27111C18.3684 1.77111 19.5874 1.96511 19.9184 2.06811C20.2034 2.15611 20.4344 2.36711 20.5484 2.64311C20.9694 3.66111 21.0844 4.77211 20.8834 5.85811C20.8444 6.06711 20.8834 6.27211 20.9914 6.43511C21.6514 7.42211 22.0004 8.57611 22.0004 9.77411C22.0004 14.8381 19.0774 16.3131 17.0204 16.8071C17.2044 17.3361 17.2814 17.9051 17.2374 18.4781L17.2404 21.0001C17.2404 21.5531 16.7924 22.0001 16.2404 22.0001Z" fill="#222B45"/>
<mask id="mask0_214_6850" style="mask-type:alpha" maskUnits="userSpaceOnUse" x="2" y="1" width="21" height="21">
<path fill-rule="evenodd" clip-rule="evenodd" d="M16.2404 22.0001C15.6884 22.0001 15.2404 21.5531 15.2404 21.0001V18.4011C15.2874 17.7381 15.0884 17.1611 14.6974 16.7421C14.4384 16.4661 14.3584 16.0681 14.4884 15.7141C14.6184 15.3591 14.9364 15.1081 15.3124 15.0651C17.7464 14.7831 20.0004 13.9471 20.0004 9.77411C20.0004 8.97411 19.7684 8.20311 19.3294 7.54711C18.9284 6.94911 18.7824 6.22011 18.9164 5.49411C19.0044 5.02111 18.9994 4.54011 18.9044 4.07511C18.5004 4.19511 17.8084 4.48011 16.8114 5.17411C16.5664 5.34411 16.2554 5.39511 15.9694 5.31511C14.1654 4.80811 12.2584 4.80811 10.4534 5.31511C10.1664 5.39511 9.85741 5.34411 9.61241 5.17411C8.62541 4.48711 7.93741 4.20111 7.51741 4.08311C7.42341 4.54411 7.41941 5.02111 7.50641 5.49111C7.63941 6.21311 7.48841 6.95011 7.08041 7.56811C6.64641 8.22711 6.41941 8.99711 6.42341 9.79711C6.42341 13.6911 8.30241 14.7301 11.1234 15.0931C11.4954 15.1411 11.8094 15.3931 11.9374 15.7461C12.0644 16.0991 11.9834 16.4931 11.7274 16.7671C11.3404 17.1821 11.1414 17.7531 11.1804 18.3341L11.1814 19.1221C11.1834 19.1621 11.1834 19.2021 11.1814 19.2421L11.1824 21.0001C11.1824 21.5531 10.7354 22.0001 10.1824 22.0001C9.63041 22.0001 9.18241 21.5531 9.18241 21.0001V20.4291C6.49741 20.7791 4.96741 19.3401 3.90641 18.3401C3.46641 17.9271 3.05241 17.5361 2.74941 17.4571C2.21441 17.3181 1.89341 16.7721 2.03241 16.2381C2.17141 15.7041 2.71741 15.3781 3.25141 15.5211C4.05041 15.7291 4.64641 16.2901 5.27741 16.8841C6.29941 17.8471 7.26941 18.7591 9.18241 18.4041V18.4011C9.14541 17.8721 9.22441 17.3301 9.40741 16.8171C7.35341 16.3051 4.42341 14.8121 4.42341 9.80211C4.41741 8.61011 4.75941 7.45611 5.41041 6.46711C5.53241 6.28211 5.57841 6.06511 5.53941 5.85411C5.33941 4.77111 5.45441 3.65911 5.87441 2.64311C5.98841 2.36711 6.21941 2.15611 6.50441 2.06811C6.83541 1.96611 8.05541 1.77111 10.3664 3.27111C12.2374 2.82211 14.1864 2.82211 16.0564 3.27111C18.3684 1.77111 19.5874 1.96511 19.9184 2.06811C20.2034 2.15611 20.4344 2.36711 20.5484 2.64311C20.9694 3.66111 21.0844 4.77211 20.8834 5.85811C20.8444 6.06711 20.8834 6.27211 20.9914 6.43511C21.6514 7.42211 22.0004 8.57611 22.0004 9.77411C22.0004 14.8381 19.0774 16.3131 17.0204 16.8071C17.2044 17.3361 17.2814 17.9051 17.2374 18.4781L17.2404 21.0001C17.2404 21.5531 16.7924 22.0001 16.2404 22.0001Z" fill="white"/>
</mask>
<g mask="url(#mask0_214_6850)">
</g>
</svg>
