<svg width="24" height="24" viewBox="0 0 24 24" fill="none" xmlns="http://www.w3.org/2000/svg">
<path fill-rule="evenodd" clip-rule="evenodd" d="M13.9513 5.37276L18.7793 11.3728C19.0783 11.7438 19.0733 12.2738 18.7683 12.6398L13.7683 18.6398C13.5703 18.8768 13.2863 18.9998 12.9993 18.9998C12.7743 18.9998 12.5473 18.9238 12.3603 18.7678C11.9353 18.4148 11.8783 17.7838 12.2323 17.3598L16.7083 11.9888L12.3923 6.62676C12.0463 6.19676 12.1143 5.56676 12.5453 5.22076C12.9753 4.87376 13.6043 4.94276 13.9513 5.37276ZM5.54523 5.22076C5.97523 4.87476 6.60423 4.94276 6.95123 5.37276L11.7792 11.3728C12.0772 11.7438 12.0732 12.2738 11.7682 12.6398L6.76823 18.6398C6.57023 18.8768 6.28623 18.9998 5.99923 18.9998C5.77423 18.9998 5.54723 18.9238 5.36023 18.7678C4.93523 18.4148 4.87823 17.7838 5.23223 17.3598L9.70723 11.9888L5.39223 6.62676C5.04623 6.19676 5.11523 5.56676 5.54523 5.22076Z" fill="#222B45"/>
<mask id="mask0_214_5464" style="mask-type:alpha" maskUnits="userSpaceOnUse" x="5" y="4" width="15" height="15">
<path fill-rule="evenodd" clip-rule="evenodd" d="M13.9513 5.37276L18.7793 11.3728C19.0783 11.7438 19.0733 12.2738 18.7683 12.6398L13.7683 18.6398C13.5703 18.8768 13.2863 18.9998 12.9993 18.9998C12.7743 18.9998 12.5473 18.9238 12.3603 18.7678C11.9353 18.4148 11.8783 17.7838 12.2323 17.3598L16.7083 11.9888L12.3923 6.62676C12.0463 6.19676 12.1143 5.56676 12.5453 5.22076C12.9753 4.87376 13.6043 4.94276 13.9513 5.37276ZM5.54523 5.22076C5.97523 4.87476 6.60423 4.94276 6.95123 5.37276L11.7792 11.3728C12.0772 11.7438 12.0732 12.2738 11.7682 12.6398L6.76823 18.6398C6.57023 18.8768 6.28623 18.9998 5.99923 18.9998C5.77423 18.9998 5.54723 18.9238 5.36023 18.7678C4.93523 18.4148 4.87823 17.7838 5.23223 17.3598L9.70723 11.9888L5.39223 6.62676C5.04623 6.19676 5.11523 5.56676 5.54523 5.22076Z" fill="white"/>
</mask>
<g mask="url(#mask0_214_5464)">
</g>
</svg>
