<svg width="24" height="24" viewBox="0 0 24 24" fill="none" xmlns="http://www.w3.org/2000/svg">
<path fill-rule="evenodd" clip-rule="evenodd" d="M6.698 14.63C5.012 12.389 4 9.613 4 6.6C4 5.166 5.166 4 6.599 4C6.709 4 6.817 4.007 6.927 4.022L7.988 8.642L7.8178 8.7308L7.81741 8.731C7.69249 8.79612 7.56471 8.86273 7.443 8.927C6.572 9.382 5.943 9.711 6.265 10.514C6.641 11.584 7.186 12.576 7.844 13.484L9.273 12.055C8.971 11.609 8.701 11.139 8.474 10.645C9.714 9.995 9.718 9.992 9.854 9.85C10.088 9.607 10.182 9.262 10.107 8.934L8.738 2.97C8.661 2.634 8.417 2.361 8.092 2.249C7.854 2.166 7.608 2.105 7.365 2.066C7.116 2.023 6.86 2 6.599 2C4.063 2 2 4.064 2 6.6C2 10.166 3.229 13.443 5.271 16.057L6.698 14.63ZM19.7391 4.2608C19.3921 3.9128 18.8301 3.9128 18.4821 4.2608L4.2601 18.4828C4.0871 18.6568 4.0001 18.8838 4.0001 19.1118C4.0001 19.3388 4.0871 19.5668 4.2601 19.7398C4.6071 20.0868 5.1701 20.0868 5.5171 19.7398L19.7391 5.5178C20.0871 5.1698 20.0871 4.6078 19.7391 4.2608ZM21.7503 15.9088C21.8323 16.1438 21.8953 16.3888 21.9353 16.6388C21.9773 16.8868 21.9993 17.1418 21.9993 17.4008C21.9993 19.9368 19.9363 21.9998 17.4003 21.9998C13.8333 21.9998 10.5563 20.7708 7.9433 18.7288L9.3703 17.3018C11.6113 18.9878 14.3863 19.9998 17.4003 19.9998C18.8333 19.9998 19.9993 18.8338 19.9993 17.4008C19.9993 17.2888 19.9933 17.1798 19.9783 17.0728L15.3583 16.0118L15.0733 16.5568L15.0686 16.5657C14.616 17.4311 14.2884 18.0576 13.4463 17.7198C12.3933 17.3508 11.4133 16.8108 10.5123 16.1588L11.9423 14.7288C12.3893 15.0328 12.8603 15.3028 13.3543 15.5278C14.0034 14.2865 14.0073 14.2828 14.1497 14.1464L14.1503 14.1458C14.3933 13.9118 14.7373 13.8198 15.0663 13.8928L21.0303 15.2618C21.3663 15.3388 21.6383 15.5828 21.7503 15.9088Z" fill="#222B45"/>
<mask id="mask0_214_7174" style="mask-type:alpha" maskUnits="userSpaceOnUse" x="2" y="2" width="20" height="20">
<path fill-rule="evenodd" clip-rule="evenodd" d="M6.698 14.63C5.012 12.389 4 9.613 4 6.6C4 5.166 5.166 4 6.599 4C6.709 4 6.817 4.007 6.927 4.022L7.988 8.642L7.8178 8.7308L7.81741 8.731C7.69249 8.79612 7.56471 8.86273 7.443 8.927C6.572 9.382 5.943 9.711 6.265 10.514C6.641 11.584 7.186 12.576 7.844 13.484L9.273 12.055C8.971 11.609 8.701 11.139 8.474 10.645C9.714 9.995 9.718 9.992 9.854 9.85C10.088 9.607 10.182 9.262 10.107 8.934L8.738 2.97C8.661 2.634 8.417 2.361 8.092 2.249C7.854 2.166 7.608 2.105 7.365 2.066C7.116 2.023 6.86 2 6.599 2C4.063 2 2 4.064 2 6.6C2 10.166 3.229 13.443 5.271 16.057L6.698 14.63ZM19.7391 4.2608C19.3921 3.9128 18.8301 3.9128 18.4821 4.2608L4.2601 18.4828C4.0871 18.6568 4.0001 18.8838 4.0001 19.1118C4.0001 19.3388 4.0871 19.5668 4.2601 19.7398C4.6071 20.0868 5.1701 20.0868 5.5171 19.7398L19.7391 5.5178C20.0871 5.1698 20.0871 4.6078 19.7391 4.2608ZM21.7503 15.9088C21.8323 16.1438 21.8953 16.3888 21.9353 16.6388C21.9773 16.8868 21.9993 17.1418 21.9993 17.4008C21.9993 19.9368 19.9363 21.9998 17.4003 21.9998C13.8333 21.9998 10.5563 20.7708 7.9433 18.7288L9.3703 17.3018C11.6113 18.9878 14.3863 19.9998 17.4003 19.9998C18.8333 19.9998 19.9993 18.8338 19.9993 17.4008C19.9993 17.2888 19.9933 17.1798 19.9783 17.0728L15.3583 16.0118L15.0733 16.5568L15.0686 16.5657C14.616 17.4311 14.2884 18.0576 13.4463 17.7198C12.3933 17.3508 11.4133 16.8108 10.5123 16.1588L11.9423 14.7288C12.3893 15.0328 12.8603 15.3028 13.3543 15.5278C14.0034 14.2865 14.0073 14.2828 14.1497 14.1464L14.1503 14.1458C14.3933 13.9118 14.7373 13.8198 15.0663 13.8928L21.0303 15.2618C21.3663 15.3388 21.6383 15.5828 21.7503 15.9088Z" fill="white"/>
</mask>
<g mask="url(#mask0_214_7174)">
</g>
</svg>
