<svg width="24" height="24" viewBox="0 0 24 24" fill="none" xmlns="http://www.w3.org/2000/svg">
<path fill-rule="evenodd" clip-rule="evenodd" d="M20 17.4005C20 17.2895 19.993 17.1795 19.979 17.0725L15.358 16.0115C15.267 16.1875 15.167 16.3795 15.073 16.5565C14.618 17.4265 14.292 18.0585 13.446 17.7195C10.14 16.5595 7.441 13.8605 6.266 10.5135C5.909 9.72949 6.589 9.37349 7.451 8.92249C7.626 8.83149 7.815 8.73249 7.988 8.64149L6.928 4.02149C6.817 4.00649 6.709 4.00049 6.6 4.00049C5.167 4.00049 4 5.16649 4 6.59949C4 13.9885 10.011 20.0005 17.4 20.0005C18.834 20.0005 20 18.8345 20 17.4005ZM21.936 16.6385C21.978 16.8865 22 17.1415 22 17.4005C22 19.9365 19.937 22.0005 17.4 22.0005C8.909 22.0005 2 15.0915 2 6.59949C2 4.06349 4.063 2.00049 6.6 2.00049C6.86 2.00049 7.117 2.02249 7.366 2.06549C7.609 2.10449 7.854 2.16649 8.091 2.24849C8.417 2.36149 8.661 2.63349 8.738 2.96949L10.107 8.93349C10.183 9.26149 10.088 9.60649 9.854 9.84949C9.718 9.99249 9.715 9.99549 8.475 10.6435C9.479 12.8185 11.224 14.5565 13.354 15.5275C14.005 14.2865 14.008 14.2825 14.15 14.1455C14.394 13.9125 14.737 13.8195 15.066 13.8925L21.03 15.2615C21.366 15.3385 21.639 15.5835 21.751 15.9085C21.833 16.1435 21.896 16.3885 21.936 16.6385ZM13 4.00049C16.859 4.00049 20 7.14049 20 11.0005C20 11.5525 20.447 12.0005 21 12.0005C21.553 12.0005 22 11.5525 22 11.0005C22 6.03749 17.963 2.00049 13 2.00049C12.448 2.00049 12 2.44749 12 3.00049C12 3.55249 12.448 4.00049 13 4.00049ZM12 7.00049C12 6.44749 12.448 6.00049 13 6.00049C15.757 6.00049 18 8.24349 18 11.0005C18 11.5525 17.553 12.0005 17 12.0005C16.447 12.0005 16 11.5525 16 11.0005C16 9.34549 14.654 8.00049 13 8.00049C12.448 8.00049 12 7.55249 12 7.00049Z" fill="#222B45"/>
</svg>
