<svg width="24" height="24" viewBox="0 0 24 24" fill="none" xmlns="http://www.w3.org/2000/svg">
<path fill-rule="evenodd" clip-rule="evenodd" d="M15.802 7.23249L16.535 6.50049L15.802 5.76749C15.4 5.36449 15.4 4.70549 15.802 4.30149C16.205 3.89949 16.864 3.89949 17.268 4.30149L18 5.03549L18.733 4.30149C19.136 3.89949 19.795 3.89949 20.198 4.30149C20.601 4.70549 20.601 5.36449 20.198 5.76749L19.465 6.50049L20.198 7.23249C20.601 7.63549 20.601 8.29449 20.198 8.69849C19.795 9.10049 19.136 9.10049 18.733 8.69849L18 7.96449L17.268 8.69849C16.864 9.10049 16.205 9.10049 15.802 8.69849C15.4 8.29449 15.4 7.63549 15.802 7.23249ZM17.401 20.0005C10.012 20.0005 4 13.9885 4 6.59949C4 5.16649 5.166 4.00049 6.6 4.00049C6.709 4.00049 6.818 4.00649 6.928 4.02149L7.989 8.64149C7.813 8.73349 7.621 8.83349 7.444 8.92649C6.573 9.38149 5.944 9.71149 6.266 10.5135C7.441 13.8605 10.14 16.5595 13.447 17.7195C14.294 18.0585 14.618 17.4265 15.073 16.5565C15.167 16.3785 15.267 16.1875 15.359 16.0115L19.979 17.0725C19.993 17.1795 20 17.2895 20 17.4005C20 18.8345 18.834 20.0005 17.401 20.0005ZM21.936 16.6385C21.896 16.3885 21.833 16.1435 21.751 15.9085C21.639 15.5835 21.366 15.3385 21.031 15.2615L15.067 13.8925C14.738 13.8195 14.394 13.9125 14.151 14.1455C14.008 14.2825 14.005 14.2855 13.355 15.5275C11.215 14.5525 9.466 12.8065 8.475 10.6445C9.714 9.99549 9.718 9.99249 9.855 9.84949C10.088 9.60649 10.183 9.26149 10.108 8.93349L8.739 2.96949C8.661 2.63349 8.417 2.36149 8.092 2.24949C7.855 2.16649 7.609 2.10449 7.365 2.06549C7.116 2.02249 6.861 2.00049 6.6 2.00049C4.064 2.00049 2 4.06349 2 6.59949C2 15.0915 8.908 22.0005 17.401 22.0005C19.937 22.0005 22 19.9365 22 17.4005C22 17.1415 21.978 16.8865 21.936 16.6385Z" fill="#222B45"/>
</svg>
