<svg width="24" height="24" viewBox="0 0 24 24" fill="none" xmlns="http://www.w3.org/2000/svg">
<path fill-rule="evenodd" clip-rule="evenodd" d="M13.3625 17C13.1005 17 12.8395 16.898 12.6435 16.695L8.78053 12.695C8.40253 12.302 8.40753 11.679 8.79353 11.293L12.7935 7.29301C13.1835 6.90201 13.8165 6.90201 14.2075 7.29301C14.5975 7.68401 14.5975 8.31601 14.2075 8.70701L10.9025 12.012L14.0815 15.305C14.4655 15.703 14.4545 16.336 14.0575 16.719C13.8625 16.907 13.6125 17 13.3625 17Z" fill="#222B45"/>
<mask id="mask0_214_5967" style="mask-type:alpha" maskUnits="userSpaceOnUse" x="8" y="6" width="7" height="11">
<path fill-rule="evenodd" clip-rule="evenodd" d="M13.3625 17C13.1005 17 12.8395 16.898 12.6435 16.695L8.78053 12.695C8.40253 12.302 8.40753 11.679 8.79353 11.293L12.7935 7.29301C13.1835 6.90201 13.8165 6.90201 14.2075 7.29301C14.5975 7.68401 14.5975 8.31601 14.2075 8.70701L10.9025 12.012L14.0815 15.305C14.4655 15.703 14.4545 16.336 14.0575 16.719C13.8625 16.907 13.6125 17 13.3625 17Z" fill="white"/>
</mask>
<g mask="url(#mask0_214_5967)">
</g>
</svg>
