<svg width="24" height="24" viewBox="0 0 24 24" fill="none" xmlns="http://www.w3.org/2000/svg">
<path fill-rule="evenodd" clip-rule="evenodd" d="M20 14.5995L17.191 11.9995L20 9.40051V14.5995ZM15 15.9995C15 16.5515 14.552 16.9995 14 16.9995H5C4.448 16.9995 4 16.5515 4 15.9995V7.99951C4 7.44851 4.448 6.99951 5 6.99951H14C14.552 6.99951 15 7.44851 15 7.99951V15.9995ZM21.012 7.14551C20.386 6.87251 19.66 6.99151 19.161 7.45151L17 9.45151V7.99951C17 6.34551 15.654 4.99951 14 4.99951H5C3.346 4.99951 2 6.34551 2 7.99951V15.9995C2 17.6545 3.346 18.9995 5 18.9995H14C15.654 18.9995 17 17.6545 17 15.9995V14.5485L19.161 16.5475C19.481 16.8445 19.896 16.9995 20.319 16.9995C20.553 16.9995 20.788 16.9525 21.012 16.8545C21.621 16.5885 22 16.0195 22 15.3705V8.62951C22 7.98051 21.621 7.41151 21.012 7.14551Z" fill="#222B45"/>
<mask id="mask0_214_7287" style="mask-type:alpha" maskUnits="userSpaceOnUse" x="2" y="4" width="20" height="15">
<path fill-rule="evenodd" clip-rule="evenodd" d="M20 14.5995L17.191 11.9995L20 9.40051V14.5995ZM15 15.9995C15 16.5515 14.552 16.9995 14 16.9995H5C4.448 16.9995 4 16.5515 4 15.9995V7.99951C4 7.44851 4.448 6.99951 5 6.99951H14C14.552 6.99951 15 7.44851 15 7.99951V15.9995ZM21.012 7.14551C20.386 6.87251 19.66 6.99151 19.161 7.45151L17 9.45151V7.99951C17 6.34551 15.654 4.99951 14 4.99951H5C3.346 4.99951 2 6.34551 2 7.99951V15.9995C2 17.6545 3.346 18.9995 5 18.9995H14C15.654 18.9995 17 17.6545 17 15.9995V14.5485L19.161 16.5475C19.481 16.8445 19.896 16.9995 20.319 16.9995C20.553 16.9995 20.788 16.9525 21.012 16.8545C21.621 16.5885 22 16.0195 22 15.3705V8.62951C22 7.98051 21.621 7.41151 21.012 7.14551Z" fill="white"/>
</mask>
<g mask="url(#mask0_214_7287)">
</g>
</svg>
