<svg width="24" height="24" viewBox="0 0 24 24" fill="none" xmlns="http://www.w3.org/2000/svg">
<path fill-rule="evenodd" clip-rule="evenodd" d="M20 9.40025L17.191 12.0002L20 14.5992V9.40025ZM22 8.62925V15.3702C22 16.0192 21.621 16.5883 21.012 16.8542C20.788 16.9523 20.553 17.0002 20.319 17.0002C20.113 17.0002 19.91 16.9622 19.718 16.8892L15 12.1713V8.00025C15 7.44825 14.552 7.00025 14 7.00025H9.828L7.828 5.00025H14C15.654 5.00025 17 6.34525 17 8.00025V9.45125L19.161 7.45125C19.66 6.99125 20.386 6.87325 21.012 7.14525C21.621 7.41125 22 7.98025 22 8.62925ZM14 17.0003H5C4.448 17.0003 4 16.5513 4 16.0003V8.00025C4 7.67925 4.161 7.40725 4.396 7.22325L2.974 5.80125C2.379 6.35025 2 7.12925 2 8.00025V16.0003C2 17.6543 3.346 19.0002 5 19.0002H14C14.616 19.0002 15.188 18.8123 15.665 18.4933L14.143 16.9703C14.094 16.9782 14.051 17.0003 14 17.0003ZM20.707 19.2932C21.098 19.6832 21.098 20.3162 20.707 20.7073C20.512 20.9023 20.256 21.0002 20 21.0002C19.744 21.0002 19.488 20.9023 19.293 20.7073L16.386 17.7992L14.931 16.3442L5.586 7.00025L3.826 5.24025L3.293 4.70725C2.902 4.31625 2.902 3.68325 3.293 3.29325C3.684 2.90225 4.316 2.90225 4.707 3.29325L6.414 5.00025L8.414 7.00025L15 13.5863L17 15.5863L20.707 19.2932Z" fill="#222B45"/>
</svg>
