<svg width="24" height="24" viewBox="0 0 24 24" fill="none" xmlns="http://www.w3.org/2000/svg">
<path fill-rule="evenodd" clip-rule="evenodd" d="M18.6245 8.219L13.6245 4.219C13.2595 3.927 12.7405 3.927 12.3755 4.219L7.37551 8.219C6.94351 8.564 6.87451 9.193 7.21951 9.624C7.56351 10.055 8.19351 10.125 8.62451 9.781L11.9995 7.08V16C11.9995 16.551 11.5515 17 10.9995 17H5.99951C5.44751 17 4.99951 17.448 4.99951 18C4.99951 18.552 5.44751 19 5.99951 19H10.9995C12.6545 19 13.9995 17.654 13.9995 16V7.08L17.3755 9.781C17.5595 9.928 17.7805 10 17.9995 10C18.2925 10 18.5835 9.871 18.7805 9.624C19.1255 9.193 19.0565 8.564 18.6245 8.219Z" fill="#222B45"/>
<mask id="mask0_214_7029" style="mask-type:alpha" maskUnits="userSpaceOnUse" x="4" y="4" width="15" height="15">
<path fill-rule="evenodd" clip-rule="evenodd" d="M18.6245 8.219L13.6245 4.219C13.2595 3.927 12.7405 3.927 12.3755 4.219L7.37551 8.219C6.94351 8.564 6.87451 9.193 7.21951 9.624C7.56351 10.055 8.19351 10.125 8.62451 9.781L11.9995 7.08V16C11.9995 16.551 11.5515 17 10.9995 17H5.99951C5.44751 17 4.99951 17.448 4.99951 18C4.99951 18.552 5.44751 19 5.99951 19H10.9995C12.6545 19 13.9995 17.654 13.9995 16V7.08L17.3755 9.781C17.5595 9.928 17.7805 10 17.9995 10C18.2925 10 18.5835 9.871 18.7805 9.624C19.1255 9.193 19.0565 8.564 18.6245 8.219Z" fill="white"/>
</mask>
<g mask="url(#mask0_214_7029)">
</g>
</svg>
