<svg width="24" height="24" viewBox="0 0 24 24" fill="none" xmlns="http://www.w3.org/2000/svg">
<path fill-rule="evenodd" clip-rule="evenodd" d="M3.94799 5H20.052C20.573 5 21 5.427 21 5.948V6.052C21 6.573 20.573 7 20.052 7H3.94799C3.42699 7 2.99999 6.573 2.99999 6.052V5.948C2.99999 5.427 3.42699 5 3.94799 5ZM20.052 11H5.91399L7.20699 9.707C7.59799 9.316 7.59799 8.684 7.20699 8.293C6.81699 7.902 6.18399 7.902 5.79299 8.293L2.79299 11.293C2.40299 11.684 2.40299 12.316 2.79299 12.707L5.79299 15.707C5.98899 15.902 6.24399 16 6.49999 16C6.75599 16 7.01199 15.902 7.20699 15.707C7.59799 15.316 7.59799 14.684 7.20699 14.293L5.91399 13H20.052C20.573 13 21 12.573 21 12.052V11.948C21 11.427 20.573 11 20.052 11ZM20.052 17H3.94799C3.42699 17 2.99999 17.427 2.99999 17.948V18.052C2.99999 18.573 3.42699 19 3.94799 19H20.052C20.573 19 21 18.573 21 18.052V17.948C21 17.427 20.573 17 20.052 17Z" fill="#222B45"/>
<mask id="mask0_214_7303" style="mask-type:alpha" maskUnits="userSpaceOnUse" x="2" y="5" width="19" height="14">
<path fill-rule="evenodd" clip-rule="evenodd" d="M3.94799 5H20.052C20.573 5 21 5.427 21 5.948V6.052C21 6.573 20.573 7 20.052 7H3.94799C3.42699 7 2.99999 6.573 2.99999 6.052V5.948C2.99999 5.427 3.42699 5 3.94799 5ZM20.052 11H5.91399L7.20699 9.707C7.59799 9.316 7.59799 8.684 7.20699 8.293C6.81699 7.902 6.18399 7.902 5.79299 8.293L2.79299 11.293C2.40299 11.684 2.40299 12.316 2.79299 12.707L5.79299 15.707C5.98899 15.902 6.24399 16 6.49999 16C6.75599 16 7.01199 15.902 7.20699 15.707C7.59799 15.316 7.59799 14.684 7.20699 14.293L5.91399 13H20.052C20.573 13 21 12.573 21 12.052V11.948C21 11.427 20.573 11 20.052 11ZM20.052 17H3.94799C3.42699 17 2.99999 17.427 2.99999 17.948V18.052C2.99999 18.573 3.42699 19 3.94799 19H20.052C20.573 19 21 18.573 21 18.052V17.948C21 17.427 20.573 17 20.052 17Z" fill="white"/>
</mask>
<g mask="url(#mask0_214_7303)">
</g>
</svg>
