<svg width="24" height="24" viewBox="0 0 24 24" fill="none" xmlns="http://www.w3.org/2000/svg">
<path fill-rule="evenodd" clip-rule="evenodd" d="M20.7074 19.2919L19.4074 17.9919L17.4144 15.9989L7.88637 6.46986L6.42037 5.00486L4.70737 3.29186C4.31637 2.90086 3.68437 2.90086 3.29337 3.29186C2.90237 3.68286 2.90237 4.31486 3.29337 4.70586L5.53137 6.94486L7.28337 8.69586L14.5864 15.9989L14.6554 16.0679L16.0004 17.4129L16.5864 17.9989L19.2934 20.7059C19.4884 20.9009 19.7444 20.9989 20.0004 20.9989C20.2564 20.9989 20.5124 20.9009 20.7074 20.7059C21.0984 20.3149 21.0984 19.6829 20.7074 19.2919ZM14.0004 18.3399V17.9989H10.0004V18.3399C10.0004 19.2389 10.9164 19.9989 12.0004 19.9989C13.0844 19.9989 14.0004 19.2389 14.0004 18.3399ZM15.1724 17.9989L15.9514 18.7789C15.7124 20.5879 14.0424 21.9989 12.0004 21.9989C9.79437 21.9989 8.00037 20.3579 8.00037 18.3399V17.9989H4.63737C3.97337 17.9989 3.38037 17.6029 3.12537 16.9889C2.87137 16.3759 3.01037 15.6769 3.47837 15.2069L5.27937 13.4029L5.28037 8.72586C5.28037 8.52886 5.29537 8.33386 5.31137 8.13886L7.28037 10.1069V13.4029C7.28037 13.9369 7.07237 14.4389 6.69437 14.8169L5.51537 15.9989H13.1724L14.0294 16.8559L15.1724 17.9989ZM8.46837 5.63886L7.03537 4.20586C7.20737 4.01686 7.38937 3.83586 7.58337 3.66586C9.03937 2.38986 10.9764 1.80286 12.8994 2.05886C16.2184 2.49786 18.7204 5.45486 18.7204 8.93586V13.4029L20.5204 15.2069C20.9894 15.6759 21.1284 16.3759 20.8734 16.9899C20.7724 17.2319 20.6094 17.4269 20.4204 17.5899L16.8154 13.9859C16.7594 13.7989 16.7204 13.6049 16.7204 13.4029V8.93586C16.7204 6.45386 14.9654 4.34986 12.6384 4.04086C11.2624 3.85986 9.93837 4.25986 8.90037 5.16986C8.73837 5.31186 8.60737 5.47886 8.46837 5.63886Z" fill="#222B45"/>
</svg>
