<svg width="24" height="24" viewBox="0 0 24 24" fill="none" xmlns="http://www.w3.org/2000/svg">
<path fill-rule="evenodd" clip-rule="evenodd" d="M17.9993 14.9999C17.7733 14.9999 17.5463 14.9239 17.3593 14.7679L11.9883 10.2919L6.62626 14.6069C6.19726 14.9539 5.56726 14.8859 5.22026 14.4549C4.87426 14.0249 4.94226 13.3959 5.37326 13.0489L11.3733 8.22092C11.7433 7.92192 12.2743 7.92592 12.6403 8.23192L18.6403 13.2319C19.0643 13.5849 19.1213 14.2159 18.7683 14.6399C18.5703 14.8769 18.2863 14.9999 17.9993 14.9999Z" fill="#222B45"/>
<mask id="mask0_214_7225" style="mask-type:alpha" maskUnits="userSpaceOnUse" x="4" y="7" width="15" height="8">
<path fill-rule="evenodd" clip-rule="evenodd" d="M17.9993 14.9999C17.7733 14.9999 17.5463 14.9239 17.3593 14.7679L11.9883 10.2919L6.62626 14.6069C6.19726 14.9539 5.56726 14.8859 5.22026 14.4549C4.87426 14.0249 4.94226 13.3959 5.37326 13.0489L11.3733 8.22092C11.7433 7.92192 12.2743 7.92592 12.6403 8.23192L18.6403 13.2319C19.0643 13.5849 19.1213 14.2159 18.7683 14.6399C18.5703 14.8769 18.2863 14.9999 17.9993 14.9999Z" fill="white"/>
</mask>
<g mask="url(#mask0_214_7225)">
</g>
</svg>
