<svg width="24" height="24" viewBox="0 0 24 24" fill="none" xmlns="http://www.w3.org/2000/svg">
<path fill-rule="evenodd" clip-rule="evenodd" d="M10.5 8.01466V15.9087L15.321 11.9977L10.5 8.01466ZM10.456 18.0007C10.149 18.0007 9.839 17.9347 9.55 17.7987C8.902 17.4937 8.5 16.8857 8.5 16.2127V7.78666C8.5 7.11466 8.902 6.50666 9.55 6.20166C10.282 5.85666 11.15 5.95666 11.759 6.45966L16.858 10.6737C17.267 11.0097 17.5 11.4937 17.5 11.9997C17.5 12.5057 17.267 12.9907 16.858 13.3267L11.759 17.5387C11.391 17.8437 10.927 18.0007 10.456 18.0007Z" fill="#222B45"/>
<mask id="mask0_214_7059" style="mask-type:alpha" maskUnits="userSpaceOnUse" x="8" y="5" width="10" height="14">
<path fill-rule="evenodd" clip-rule="evenodd" d="M10.5 8.01466V15.9087L15.321 11.9977L10.5 8.01466ZM10.456 18.0007C10.149 18.0007 9.839 17.9347 9.55 17.7987C8.902 17.4937 8.5 16.8857 8.5 16.2127V7.78666C8.5 7.11466 8.902 6.50666 9.55 6.20166C10.282 5.85666 11.15 5.95666 11.759 6.45966L16.858 10.6737C17.267 11.0097 17.5 11.4937 17.5 11.9997C17.5 12.5057 17.267 12.9907 16.858 13.3267L11.759 17.5387C11.391 17.8437 10.927 18.0007 10.456 18.0007Z" fill="white"/>
</mask>
<g mask="url(#mask0_214_7059)">
</g>
</svg>
