<svg width="24" height="24" viewBox="0 0 24 24" fill="none" xmlns="http://www.w3.org/2000/svg">
<path fill-rule="evenodd" clip-rule="evenodd" d="M8.09159 10L12.0016 14.822L15.9866 10H8.09159ZM11.9996 17C11.4936 17 11.0096 16.767 10.6736 16.358L6.46059 11.26C5.95659 10.649 5.85659 9.782 6.20159 9.049C6.50659 8.402 7.11359 8 7.78659 8H16.2126C16.8856 8 17.4926 8.402 17.7976 9.049C18.1436 9.782 18.0426 10.649 17.5396 11.259L13.3256 16.358C12.9896 16.767 12.5056 17 11.9996 17Z" fill="#222B45"/>
<mask id="mask0_214_7273" style="mask-type:alpha" maskUnits="userSpaceOnUse" x="5" y="8" width="14" height="9">
<path fill-rule="evenodd" clip-rule="evenodd" d="M8.09159 10L12.0016 14.822L15.9866 10H8.09159ZM11.9996 17C11.4936 17 11.0096 16.767 10.6736 16.358L6.46059 11.26C5.95659 10.649 5.85659 9.782 6.20159 9.049C6.50659 8.402 7.11359 8 7.78659 8H16.2126C16.8856 8 17.4926 8.402 17.7976 9.049C18.1436 9.782 18.0426 10.649 17.5396 11.259L13.3256 16.358C12.9896 16.767 12.5056 17 11.9996 17Z" fill="white"/>
</mask>
<g mask="url(#mask0_214_7273)">
</g>
</svg>
