<svg width="24" height="24" viewBox="0 0 24 24" fill="none" xmlns="http://www.w3.org/2000/svg">
<path fill-rule="evenodd" clip-rule="evenodd" d="M8.01366 14H15.9087L11.9977 9.17805L8.01366 14ZM16.2127 16H7.78666C7.11466 16 6.50666 15.598 6.20166 14.951C5.85666 14.218 5.95666 13.351 6.45966 12.741L10.6737 7.64205C11.3457 6.82505 12.6547 6.82505 13.3257 7.64205L17.5387 12.74C18.0427 13.351 18.1437 14.218 17.7977 14.951C17.4927 15.598 16.8857 16 16.2127 16Z" fill="#222B45"/>
<mask id="mask0_214_7167" style="mask-type:alpha" maskUnits="userSpaceOnUse" x="5" y="7" width="14" height="9">
<path fill-rule="evenodd" clip-rule="evenodd" d="M8.01366 14H15.9087L11.9977 9.17805L8.01366 14ZM16.2127 16H7.78666C7.11466 16 6.50666 15.598 6.20166 14.951C5.85666 14.218 5.95666 13.351 6.45966 12.741L10.6737 7.64205C11.3457 6.82505 12.6547 6.82505 13.3257 7.64205L17.5387 12.74C18.0427 13.351 18.1437 14.218 17.7977 14.951C17.4927 15.598 16.8857 16 16.2127 16Z" fill="white"/>
</mask>
<g mask="url(#mask0_214_7167)">
</g>
</svg>
