<svg width="24" height="24" viewBox="0 0 24 24" fill="none" xmlns="http://www.w3.org/2000/svg">
<path fill-rule="evenodd" clip-rule="evenodd" d="M8.678 12.0018L13.5 15.9848V8.09176L8.678 12.0018ZM13.544 18.0008C13.073 18.0008 12.609 17.8438 12.241 17.5398L7.141 13.3258C6.734 12.9898 6.5 12.5058 6.5 11.9998C6.5 11.4938 6.734 11.0098 7.141 10.6738L12.241 6.46076C12.849 5.95676 13.716 5.85576 14.45 6.20076C15.097 6.50676 15.5 7.11376 15.5 7.78676V16.2128C15.5 16.8858 15.097 17.4928 14.45 17.7988C14.161 17.9348 13.851 18.0008 13.544 18.0008Z" fill="#222B45"/>
<mask id="mask0_214_6960" style="mask-type:alpha" maskUnits="userSpaceOnUse" x="6" y="5" width="10" height="14">
<path fill-rule="evenodd" clip-rule="evenodd" d="M8.678 12.0018L13.5 15.9848V8.09176L8.678 12.0018ZM13.544 18.0008C13.073 18.0008 12.609 17.8438 12.241 17.5398L7.141 13.3258C6.734 12.9898 6.5 12.5058 6.5 11.9998C6.5 11.4938 6.734 11.0098 7.141 10.6738L12.241 6.46076C12.849 5.95676 13.716 5.85576 14.45 6.20076C15.097 6.50676 15.5 7.11376 15.5 7.78676V16.2128C15.5 16.8858 15.097 17.4928 14.45 17.7988C14.161 17.9348 13.851 18.0008 13.544 18.0008Z" fill="white"/>
</mask>
<g mask="url(#mask0_214_6960)">
</g>
</svg>
