<svg width="24" height="24" viewBox="0 0 24 24" fill="none" xmlns="http://www.w3.org/2000/svg">
<path fill-rule="evenodd" clip-rule="evenodd" d="M7.86641 9.09849L13.0644 10.1555C13.4584 10.2345 13.7654 10.5415 13.8454 10.9355L14.9014 16.1335L18.4194 5.58049L7.86641 9.09849ZM14.6674 20.9995C14.6464 20.9995 14.6264 20.9985 14.6064 20.9975C14.1544 20.9705 13.7774 20.6425 13.6864 20.1995L12.0174 11.9825L3.80141 10.3125C3.35741 10.2225 3.02941 9.84549 3.00241 9.39349C2.97441 8.94149 3.25441 8.52749 3.68341 8.38449L19.6834 3.05149C20.0434 2.92949 20.4394 3.02449 20.7074 3.29249C20.9754 3.56049 21.0684 3.95649 20.9494 4.31649L15.6154 20.3165C15.4784 20.7265 15.0954 20.9995 14.6674 20.9995Z" fill="#222B45"/>
<mask id="mask0_214_6449" style="mask-type:alpha" maskUnits="userSpaceOnUse" x="3" y="2" width="19" height="19">
<path fill-rule="evenodd" clip-rule="evenodd" d="M7.86641 9.09849L13.0644 10.1555C13.4584 10.2345 13.7654 10.5415 13.8454 10.9355L14.9014 16.1335L18.4194 5.58049L7.86641 9.09849ZM14.6674 20.9995C14.6464 20.9995 14.6264 20.9985 14.6064 20.9975C14.1544 20.9705 13.7774 20.6425 13.6864 20.1995L12.0174 11.9825L3.80141 10.3125C3.35741 10.2225 3.02941 9.84549 3.00241 9.39349C2.97441 8.94149 3.25441 8.52749 3.68341 8.38449L19.6834 3.05149C20.0434 2.92949 20.4394 3.02449 20.7074 3.29249C20.9754 3.56049 21.0684 3.95649 20.9494 4.31649L15.6154 20.3165C15.4784 20.7265 15.0954 20.9995 14.6674 20.9995Z" fill="white"/>
</mask>
<g mask="url(#mask0_214_6449)">
</g>
</svg>
