<svg width="24" height="24" viewBox="0 0 24 24" fill="none" xmlns="http://www.w3.org/2000/svg">
<path fill-rule="evenodd" clip-rule="evenodd" d="M12.0002 13.7019C12.1922 13.7019 12.3852 13.7579 12.5522 13.8679L17.4322 17.0989L12.0002 6.23593L6.56823 17.0989L11.4482 13.8679C11.6152 13.7579 11.8082 13.7019 12.0002 13.7019ZM20.0002 20.9999C19.8082 20.9999 19.6162 20.9449 19.4482 20.8339L12.0002 15.9009L4.55223 20.8339C4.17423 21.0829 3.67623 21.0489 3.33723 20.7489C2.99823 20.4479 2.90323 19.9579 3.10523 19.5529L11.1052 3.55293C11.4442 2.87493 12.5562 2.87493 12.8952 3.55293L20.8952 19.5529C21.0972 19.9579 21.0022 20.4479 20.6632 20.7489C20.4752 20.9149 20.2382 20.9999 20.0002 20.9999Z" fill="#222B45"/>
<mask id="mask0_214_6556" style="mask-type:alpha" maskUnits="userSpaceOnUse" x="3" y="3" width="19" height="18">
<path fill-rule="evenodd" clip-rule="evenodd" d="M12.0002 13.7019C12.1922 13.7019 12.3852 13.7579 12.5522 13.8679L17.4322 17.0989L12.0002 6.23593L6.56823 17.0989L11.4482 13.8679C11.6152 13.7579 11.8082 13.7019 12.0002 13.7019ZM20.0002 20.9999C19.8082 20.9999 19.6162 20.9449 19.4482 20.8339L12.0002 15.9009L4.55223 20.8339C4.17423 21.0829 3.67623 21.0489 3.33723 20.7489C2.99823 20.4479 2.90323 19.9579 3.10523 19.5529L11.1052 3.55293C11.4442 2.87493 12.5562 2.87493 12.8952 3.55293L20.8952 19.5529C21.0972 19.9579 21.0022 20.4479 20.6632 20.7489C20.4752 20.9149 20.2382 20.9999 20.0002 20.9999Z" fill="white"/>
</mask>
<g mask="url(#mask0_214_6556)">
</g>
</svg>
