<svg width="24" height="24" viewBox="0 0 24 24" fill="none" xmlns="http://www.w3.org/2000/svg">
<path fill-rule="evenodd" clip-rule="evenodd" d="M20.992 6.963C20.99 6.891 20.969 6.823 20.95 6.754C20.935 6.696 20.928 6.637 20.903 6.584C20.88 6.532 20.841 6.49 20.807 6.442C20.765 6.381 20.727 6.32 20.673 6.27C20.664 6.261 20.66 6.249 20.65 6.241C20.614 6.21 20.57 6.199 20.531 6.174C20.471 6.135 20.412 6.095 20.344 6.069C20.277 6.045 20.211 6.039 20.142 6.029C20.094 6.022 20.051 6 20 6H15C14.447 6 14 6.448 14 7C14 7.552 14.447 8 15 8H17.826L13.79 12.708L9.51401 10.143C9.09101 9.887 8.54701 9.981 8.23101 10.36L3.23101 16.36C2.87801 16.784 2.93501 17.415 3.35901 17.768C3.54701 17.924 3.77301 18 3.99901 18C4.28601 18 4.57001 17.878 4.76801 17.64L9.22001 12.298L13.485 14.858C13.904 15.109 14.442 15.021 14.759 14.651L19 9.703V12C19 12.552 19.447 13 20 13C20.553 13 21 12.552 21 12V7C21 6.987 20.993 6.976 20.992 6.963Z" fill="#222B45"/>
<mask id="mask0_214_6420" style="mask-type:alpha" maskUnits="userSpaceOnUse" x="2" y="6" width="19" height="12">
<path fill-rule="evenodd" clip-rule="evenodd" d="M20.992 6.963C20.99 6.891 20.969 6.823 20.95 6.754C20.935 6.696 20.928 6.637 20.903 6.584C20.88 6.532 20.841 6.49 20.807 6.442C20.765 6.381 20.727 6.32 20.673 6.27C20.664 6.261 20.66 6.249 20.65 6.241C20.614 6.21 20.57 6.199 20.531 6.174C20.471 6.135 20.412 6.095 20.344 6.069C20.277 6.045 20.211 6.039 20.142 6.029C20.094 6.022 20.051 6 20 6H15C14.447 6 14 6.448 14 7C14 7.552 14.447 8 15 8H17.826L13.79 12.708L9.51401 10.143C9.09101 9.887 8.54701 9.981 8.23101 10.36L3.23101 16.36C2.87801 16.784 2.93501 17.415 3.35901 17.768C3.54701 17.924 3.77301 18 3.99901 18C4.28601 18 4.57001 17.878 4.76801 17.64L9.22001 12.298L13.485 14.858C13.904 15.109 14.442 15.021 14.759 14.651L19 9.703V12C19 12.552 19.447 13 20 13C20.553 13 21 12.552 21 12V7C21 6.987 20.993 6.976 20.992 6.963Z" fill="white"/>
</mask>
<g mask="url(#mask0_214_6420)">
</g>
</svg>
