<svg width="24" height="24" viewBox="0 0 24 24" fill="none" xmlns="http://www.w3.org/2000/svg">
<path fill-rule="evenodd" clip-rule="evenodd" d="M21.0002 12C21.0002 11.448 20.5532 11 20.0002 11C19.4472 11 19.0002 11.448 19.0002 12V14.297L14.7592 9.349C14.4432 8.979 13.9052 8.891 13.4852 9.143L9.22017 11.702L4.76917 6.36C4.41517 5.937 3.78617 5.877 3.35917 6.232C2.93617 6.585 2.87817 7.216 3.23117 7.64L8.23117 13.64C8.54817 14.019 9.09317 14.112 9.51517 13.857L13.7902 11.292L17.8262 16H15.0002C14.4472 16 14.0002 16.448 14.0002 17C14.0002 17.552 14.4472 18 15.0002 18H20.0002C20.1242 18 20.2472 17.973 20.3642 17.926C20.4132 17.907 20.4512 17.875 20.4962 17.85C20.5482 17.819 20.6042 17.8 20.6502 17.759C20.6602 17.751 20.6642 17.739 20.6732 17.73C20.7282 17.68 20.7662 17.619 20.8082 17.558C20.8412 17.51 20.8802 17.468 20.9032 17.416C20.9282 17.363 20.9362 17.304 20.9502 17.247C20.9692 17.177 20.9902 17.109 20.9922 17.037C20.9932 17.024 21.0002 17.013 21.0002 17V12Z" fill="#222B45"/>
<mask id="mask0_214_6529" style="mask-type:alpha" maskUnits="userSpaceOnUse" x="3" y="6" width="18" height="12">
<path fill-rule="evenodd" clip-rule="evenodd" d="M21.0002 12C21.0002 11.448 20.5532 11 20.0002 11C19.4472 11 19.0002 11.448 19.0002 12V14.297L14.7592 9.349C14.4432 8.979 13.9052 8.891 13.4852 9.143L9.22017 11.702L4.76917 6.36C4.41517 5.937 3.78617 5.877 3.35917 6.232C2.93617 6.585 2.87817 7.216 3.23117 7.64L8.23117 13.64C8.54817 14.019 9.09317 14.112 9.51517 13.857L13.7902 11.292L17.8262 16H15.0002C14.4472 16 14.0002 16.448 14.0002 17C14.0002 17.552 14.4472 18 15.0002 18H20.0002C20.1242 18 20.2472 17.973 20.3642 17.926C20.4132 17.907 20.4512 17.875 20.4962 17.85C20.5482 17.819 20.6042 17.8 20.6502 17.759C20.6602 17.751 20.6642 17.739 20.6732 17.73C20.7282 17.68 20.7662 17.619 20.8082 17.558C20.8412 17.51 20.8802 17.468 20.9032 17.416C20.9282 17.363 20.9362 17.304 20.9502 17.247C20.9692 17.177 20.9902 17.109 20.9922 17.037C20.9932 17.024 21.0002 17.013 21.0002 17V12Z" fill="white"/>
</mask>
<g mask="url(#mask0_214_6529)">
</g>
</svg>
